<?xml version="1.0" encoding="utf-8"?>
<!-- Generator: Adobe Illustrator 13.0.1, SVG Export Plug-In . SVG Version: 6.00 Build 14948)  -->
<!DOCTYPE svg PUBLIC "-//W3C//DTD SVG 1.0//EN" "http://www.w3.org/TR/2001/REC-SVG-20010904/DTD/svg10.dtd">
<svg version="1.0" id="Layer_1" xmlns="http://www.w3.org/2000/svg" xmlns:xlink="http://www.w3.org/1999/xlink" x="0px" y="0px"
	 width="677.175px" height="675.18px" viewBox="0 0 677.175 675.18" enable-background="new 0 0 677.175 675.18"
	 xml:space="preserve">
<g>
	<g>
		<g>
			<g enable-background="new    ">
				<g enable-background="new    ">
					<defs>
						<path id="SVGID_1_" enable-background="new    " d="M397.832,167.188l0.879,32.498c-15.251,1.52-30.28,4.457-44.777,8.744
							l-0.88-32.499C367.552,171.646,382.581,168.708,397.832,167.188z"/>
					</defs>
					<clipPath id="SVGID_2_">
						<use xlink:href="#SVGID_1_"  overflow="visible"/>
					</clipPath>
					<g clip-path="url(#SVGID_2_)" enable-background="new    ">
						<path fill="#887020" d="M397.832,167.188l0.879,32.498c-6.408,0.639-12.776,1.527-19.083,2.661l-0.879-32.498
							C385.056,168.716,391.424,167.827,397.832,167.188"/>
						<path fill="#8D7421" d="M378.749,169.85l0.879,32.498c-8.703,1.565-17.288,3.597-25.694,6.083l-0.88-32.499
							C361.46,173.446,370.045,171.415,378.749,169.85"/>
					</g>
				</g>
				<g enable-background="new    ">
					<defs>
						<path id="SVGID_3_" enable-background="new    " d="M336.914,171.788l0.879,32.498c-22.358,6.667-40.256,14.941-58.886,27.224
							l-0.879-32.498C296.657,186.729,314.555,178.455,336.914,171.788z"/>
					</defs>
					<clipPath id="SVGID_4_">
						<use xlink:href="#SVGID_3_"  overflow="visible"/>
					</clipPath>
					<g clip-path="url(#SVGID_4_)" enable-background="new    ">
						<path fill="#60008F" d="M336.914,171.788l0.879,32.498c-4.51,1.345-8.839,2.755-13.03,4.251l-0.879-32.498
							C328.074,174.543,332.403,173.133,336.914,171.788"/>
						<path fill="#630094" d="M323.884,176.039l0.879,32.498c-12.518,4.468-23.796,9.695-34.971,16.208l-0.879-32.498
							C300.087,185.734,311.366,180.507,323.884,176.039"/>
						<path fill="#670099" d="M288.912,192.248l0.879,32.498c-3.626,2.113-7.241,4.362-10.885,6.764l-0.879-32.498
							C281.671,196.609,285.286,194.361,288.912,192.248"/>
					</g>
				</g>
				<g>
					<polygon fill="#560080" points="403.85,330.34 404.729,362.838 337.792,204.286 336.914,171.788 					"/>
				</g>
				<g>
					<polygon fill="#631080" points="403.85,330.34 404.729,362.838 278.907,231.51 278.028,199.012 					"/>
				</g>
				<g>
					<polygon fill="#560080" points="404.817,331.362 405.696,363.86 278.201,231.444 277.322,198.946 					"/>
				</g>
				<g enable-background="new    ">
					<defs>
						<path id="SVGID_5_" enable-background="new    " d="M278.138,218.383l0.879,32.498
							c-19.674,13.015-33.885,26.309-47.102,44.049l-0.879-32.498C244.253,244.692,258.464,231.398,278.138,218.383z"/>
					</defs>
					<clipPath id="SVGID_6_">
						<use xlink:href="#SVGID_5_"  overflow="visible"/>
					</clipPath>
					<g clip-path="url(#SVGID_6_)" enable-background="new    ">
						<path fill="#945814" d="M278.138,218.383l0.879,32.498c-13.724,9.079-24.79,18.293-34.713,29.058l-0.879-32.499
							C253.349,236.677,264.414,227.462,278.138,218.383"/>
						<path fill="#995B14" d="M243.425,247.441l0.879,32.499c-4.303,4.667-8.391,9.625-12.389,14.991l-0.879-32.498
							C235.034,257.067,239.122,252.108,243.425,247.441"/>
					</g>
				</g>
				<g>
					<path fill="#B51CEA" d="M336.914,171.788L403.85,330.34L278.028,199.012C296.657,186.729,314.555,178.455,336.914,171.788z"/>
				</g>
				<g>
					<path fill="#9D00EA" d="M336.989,171.331l67.828,160.031L277.322,198.946C296.324,186.395,314.392,178.043,336.989,171.331z
						 M278.028,199.012L403.85,330.34l-66.936-158.552C314.555,178.455,296.657,186.729,278.028,199.012"/>
				</g>
				<g>
					<polygon fill="#7E681E" points="419.764,333.936 420.644,366.434 398.711,199.687 397.832,167.188 					"/>
				</g>
				<g>
					<polygon fill="#807900" points="419.764,333.936 420.644,366.434 353.934,208.43 353.054,175.932 					"/>
				</g>
				<g>
					<path fill="#EADE00" d="M397.832,167.188l21.932,166.748l-66.71-158.004C367.552,171.646,382.581,168.708,397.832,167.188z"/>
				</g>
				<g>
					<path fill="#E6BE36" d="M398.028,166.757l22.466,168.937l-0.486,0.092l-67.584-160.1
						C367.337,171.254,382.57,168.282,398.028,166.757z M419.764,333.936l-21.932-166.748c-15.251,1.52-30.28,4.457-44.778,8.743
						L419.764,333.936"/>
				</g>
				<g>
					<polygon fill="#967B23" points="420.494,335.694 421.373,368.191 420.887,368.284 420.008,335.786 					"/>
				</g>
				<g>
					<polygon fill="#7E681E" points="420.008,335.786 420.887,368.284 353.303,208.185 352.424,175.687 					"/>
				</g>
				<g>
					<polygon fill="#7C4A11" points="404.002,349.76 404.881,382.258 279.017,250.881 278.138,218.383 					"/>
				</g>
				<g>
					<path fill="#EAA200" d="M278.138,218.383L404.002,349.76l-172.966-87.328C244.253,244.692,258.464,231.398,278.138,218.383z"/>
				</g>
				<g>
					<polygon fill="#825A00" points="404.002,349.76 404.881,382.258 231.915,294.93 231.036,262.432 					"/>
				</g>
				<g>
					<path fill="#E3871E" d="M278.024,217.929l127.251,132.485l-174.929-87.847C243.808,244.474,258.146,231.055,278.024,217.929z
						 M231.036,262.432l172.966,87.328L278.138,218.383C258.464,231.398,244.253,244.692,231.036,262.432"/>
				</g>
				<g>
					<polygon fill="#7E4B11" points="405.275,350.414 406.154,382.912 231.226,295.066 230.347,262.567 					"/>
				</g>
				<g>
					<path fill="#EA4300" d="M409.415,190.212c56.162-5.487,109.474,8.352,150.293,35.18
						c40.879,26.867,69.216,66.752,75.338,113.296c2.27,17.254,1.806,29.919-1.733,47.035l-201.749-27.121L409.415,190.212z"/>
				</g>
				<g enable-background="new    ">
					<defs>
						<path id="SVGID_7_" enable-background="new    " d="M634.869,414.8c-0.212,1.122-0.438,2.262-0.678,3.422l-0.879-32.498
							c0.182-0.878,0.354-1.743,0.521-2.599c0.157,4.921,0.318,9.841,0.477,14.761c-0.158-4.92-0.319-9.84-0.477-14.761
							c1.985-10.273,2.812-19.036,2.558-28.397l0.879,32.498C637.517,396.336,636.741,404.879,634.869,414.8
							c-0.16-5.025-0.327-10.05-0.488-15.075c0.029,0.895,0.058,1.789,0.087,2.683c0.052,1.617,0.104,3.234,0.157,4.851
							c0.043,1.303,0.085,2.606,0.127,3.909c0.019,0.561,0.043,1.308,0.061,1.868C634.83,413.564,634.91,414.271,634.869,414.8z
							 M634.373,399.819l-0.003-0.109l-0.003-0.112l-0.004-0.115l-0.003-0.118l-0.004-0.121l-0.004-0.121l-0.004-0.123l-0.004-0.123
							l-0.004-0.122l-0.003-0.122l-0.004-0.121l-0.004-0.119l-0.004-0.116l-0.004-0.113l-0.004-0.11l-0.004-0.105l0.004,0.105
							l0.004,0.11l0.004,0.113l0.004,0.116l0.004,0.119l0.004,0.121l0.003,0.122l0.004,0.122l0.004,0.123l0.004,0.123l0.004,0.121
							l0.004,0.121l0.003,0.118l0.004,0.115l0.003,0.112L634.373,399.819"/>
					</defs>
					<clipPath id="SVGID_8_">
						<use xlink:href="#SVGID_7_"  overflow="visible"/>
					</clipPath>
					<g clip-path="url(#SVGID_8_)" enable-background="new    ">
						<path fill="#992C00" d="M636.392,354.735l0.879,32.498c0.274,10.138-0.718,19.573-3.079,30.988l-0.879-32.498
							C635.673,374.309,636.665,364.873,636.392,354.735"/>
					</g>
				</g>
				<g>
					<path fill="#CD4200" d="M408.868,189.847c113.025-11.149,214.405,55.482,226.678,148.793
						c2.282,17.351,1.804,30.107-1.781,47.354L431.297,358.99L408.868,189.847z M633.312,385.724
						c3.539-17.115,4.002-29.78,1.733-47.035c-6.122-46.544-34.459-86.429-75.338-113.296
						c-40.82-26.828-94.132-40.667-150.293-35.18l22.148,168.391L633.312,385.724"/>
				</g>
				<g enable-background="new    ">
					<defs>
						<path id="SVGID_9_" enable-background="new    " d="M409.415,190.212l0.879,32.498c1.121-0.109,2.238-0.198,3.356-0.292
							L409.415,190.212z M425.127,189.174c3.472-0.12,6.928-0.167,10.368-0.142C432.055,189.007,428.599,189.054,425.127,189.174z
							 M636.347,353.445c-0.031-0.823-0.067-1.65-0.114-2.485C636.279,351.795,636.315,352.622,636.347,353.445z M636.229,350.896
							c-0.048-0.853-0.108-1.716-0.174-2.583C636.12,349.181,636.181,350.044,636.229,350.896z M636,347.611
							c-0.068-0.854-0.143-1.714-0.227-2.586C635.858,345.897,635.932,346.758,636,347.611z M635.763,344.913
							c-0.086-0.882-0.183-1.777-0.285-2.68C635.58,343.136,635.677,344.031,635.763,344.913z M635.392,341.491
							c-0.104-0.884-0.212-1.776-0.331-2.684C635.18,339.715,635.288,340.607,635.392,341.491z M636.427,356.581
							c-0.008-0.605-0.019-1.212-0.035-1.822c0-0.008,0-0.016-0.001-0.022c-0.005-0.2-0.014-0.403-0.021-0.604
							C636.396,354.952,636.417,355.77,636.427,356.581z M636.422,359.626c-0.011,0.813-0.031,1.625-0.06,2.437
							C636.391,361.251,636.411,360.439,636.422,359.626z M636.344,362.546c-0.032,0.815-0.07,1.631-0.12,2.447
							C636.273,364.177,636.311,363.361,636.344,362.546z M636.219,365.076c-0.051,0.837-0.114,1.677-0.184,2.519
							C636.104,366.753,636.168,365.913,636.219,365.076z M635.787,370.255c0.076-0.723,0.144-1.442,0.206-2.16
							c-0.062,0.712-0.133,1.428-0.208,2.145C635.786,370.245,635.787,370.25,635.787,370.255z M636.428,356.811
							c0.008,0.789,0.007,1.575-0.001,2.358C636.435,358.385,636.436,357.6,636.428,356.811z"/>
					</defs>
					<clipPath id="SVGID_10_">
						<use xlink:href="#SVGID_9_"  overflow="visible"/>
					</clipPath>
					<g clip-path="url(#SVGID_10_)" enable-background="new    ">
						<path fill="#742500" d="M636.391,354.736l0.879,32.498c-0.137-5.062-0.589-10.301-1.345-16.047
							c-6.122-46.545-34.458-86.429-75.338-113.297c-34.816-22.882-78.72-36.315-125.729-36.367l-0.879-32.498
							c47.009,0.052,90.912,13.485,125.729,36.367c40.879,26.867,69.216,66.752,75.338,113.296
							C635.802,344.436,636.254,349.674,636.391,354.736"/>
						<path fill="#782700" d="M433.979,189.025l0.879,32.498c-8.106-0.009-16.305,0.38-24.564,1.187l-0.879-32.498
							C417.675,189.405,425.873,189.017,433.979,189.025"/>
					</g>
				</g>
				<g>
					<path fill="#802500" d="M431.297,358.99l-21.754-164.059l0.751,27.779l22.148,168.391l-0.867-32.074L431.297,358.99z
						 M431.563,358.604L431.563,358.604l-22.148-168.391L431.563,358.604z"/>
				</g>
				<g>
					<polygon fill="#702400" points="431.297,358.99 432.176,391.488 409.747,222.345 408.868,189.847 					"/>
				</g>
				<g enable-background="new    ">
					<defs>
						<path id="SVGID_11_" enable-background="new    " d="M217.135,403.508c-0.293-10.834-0.586-21.665-0.879-32.498
							c-0.729-26.935,6.294-54.467,21.983-80.338c2.51-4.139,5.671-8.837,8.619-12.81l0.879,32.498
							c-2.948,3.973-6.109,8.671-8.619,12.81C223.43,349.041,216.406,376.573,217.135,403.508z"/>
					</defs>
					<clipPath id="SVGID_12_">
						<use xlink:href="#SVGID_11_"  overflow="visible"/>
					</clipPath>
					<g clip-path="url(#SVGID_12_)" enable-background="new    ">
						<path fill="#338F2E" d="M246.858,277.862l0.879,32.498c-2.948,3.973-6.109,8.671-8.619,12.81
							c-6.021,9.929-10.766,20.103-14.286,30.393l-0.879-32.498c3.52-10.291,8.265-20.464,14.286-30.393
							C240.749,286.533,243.91,281.834,246.858,277.862"/>
						<path fill="#328A2C" d="M223.953,321.065l0.879,32.498c-5.652,16.523-8.146,33.348-7.697,49.945l-0.879-32.498
							C215.807,354.412,218.301,337.588,223.953,321.065"/>
					</g>
				</g>
				<g>
					<polygon fill="#2A7526" points="420.833,365.697 421.713,398.196 247.737,310.36 246.858,277.862 					"/>
				</g>
				<g>
					<polygon fill="#8B2800" points="633.312,385.724 634.191,418.222 432.442,391.101 431.563,358.603 					"/>
				</g>
				<g>
					<polygon fill="#7A2700" points="633.765,385.994 634.645,418.492 432.176,391.488 431.297,358.99 					"/>
				</g>
				<g enable-background="new    ">
					<defs>
						<path id="SVGID_13_" enable-background="new    " d="M636.894,354.71c0.292,10.833,0.586,21.665,0.879,32.498
							c0.276,10.23-0.731,19.754-3.128,31.284l-0.88-32.498C636.161,374.464,637.17,364.94,636.894,354.71z"/>
					</defs>
					<clipPath id="SVGID_14_">
						<use xlink:href="#SVGID_13_"  overflow="visible"/>
					</clipPath>
					<g clip-path="url(#SVGID_14_)" enable-background="new    ">
						<path fill="#862B00" d="M636.894,354.71l0.879,32.498c0.276,10.23-0.731,19.754-3.128,31.284l-0.88-32.498
							C636.161,374.464,637.17,364.94,636.894,354.71"/>
					</g>
				</g>
				<g>
					<polygon fill="#165D7C" points="631.54,396.299 632.419,428.797 430.67,401.677 429.791,369.179 					"/>
				</g>
				<g enable-background="new    ">
					<defs>
						<path id="SVGID_15_" enable-background="new    " d="M632.419,428.797c-0.021,0.103-0.043,0.206-0.064,0.309
							c-0.293-11.028-0.419-16.117-0.793-32.028C631.818,406.593,633.273,419.315,632.419,428.797z"/>
					</defs>
					<clipPath id="SVGID_16_">
						<use xlink:href="#SVGID_15_"  overflow="visible"/>
					</clipPath>
					<g clip-path="url(#SVGID_16_)" enable-background="new    ">
						<path fill="#00688F" d="M631.54,396.299l0.879,32.498c-1.28,6.111-2.938,12.093-4.952,17.932l-0.879-32.498
							C628.602,408.392,630.26,402.41,631.54,396.299"/>
					</g>
				</g>
				<g>
					<path fill="#4CBC44" d="M246.858,277.862l173.976,87.835l-92.253,152.136c-64.205-26.382-103.925-77.162-111.173-132.271
						c-4.139-31.467,2.304-64.336,20.832-94.89C240.749,286.533,243.91,281.834,246.858,277.862z"/>
				</g>
				<g enable-background="new    ">
					<defs>
						<path id="SVGID_17_" enable-background="new    " d="M218.287,418.06c-0.634-4.818-1.019-9.67-1.151-14.54l-0.879-32.498
							c0.132,4.87,0.518,9.722,1.151,14.54c7.249,55.109,46.969,105.89,111.173,132.271l0.879,32.498
							C265.255,523.949,225.535,473.169,218.287,418.06z"/>
					</defs>
					<clipPath id="SVGID_18_">
						<use xlink:href="#SVGID_17_"  overflow="visible"/>
					</clipPath>
					<g clip-path="url(#SVGID_18_)" enable-background="new    ">
						<path fill="#2B6B26" d="M328.581,517.833l0.879,32.498c-64.205-26.382-103.925-77.162-111.174-132.271
							c-0.634-4.822-1.02-9.678-1.152-14.552l-0.879-32.499c0.132,4.875,0.518,9.73,1.152,14.553
							C224.656,440.671,264.376,491.451,328.581,517.833"/>
					</g>
				</g>
				<g>
					<polygon fill="#368530" points="420.834,365.697 421.713,398.195 329.46,550.331 328.581,517.833 					"/>
				</g>
				<g enable-background="new    ">
					<defs>
						<path id="SVGID_19_" enable-background="new    " d="M216.632,403.533c-0.293-10.833-0.586-21.665-0.879-32.498
							c0.132,4.883,0.519,9.746,1.154,14.575c7.274,55.302,47.18,106.26,111.901,132.777l0.879,32.498
							c-64.722-26.518-104.628-77.476-111.902-132.777C217.15,413.279,216.764,408.416,216.632,403.533z"/>
					</defs>
					<clipPath id="SVGID_20_">
						<use xlink:href="#SVGID_19_"  overflow="visible"/>
					</clipPath>
					<g clip-path="url(#SVGID_20_)" enable-background="new    ">
						<path fill="#2B7826" d="M328.808,518.388l0.879,32.498c-64.722-26.518-104.628-77.476-111.902-132.777
							c-0.635-4.829-1.021-9.692-1.154-14.575l-0.879-32.498c0.132,4.883,0.519,9.746,1.154,14.575
							C224.181,440.912,264.087,491.87,328.808,518.388"/>
					</g>
				</g>
				<g>
					<polygon fill="#369530" points="421.29,365.442 422.169,397.94 329.688,550.886 328.808,518.388 					"/>
				</g>
				<g>
					<path fill="#4CD344" d="M421.29,365.442l-92.482,152.945c-64.721-26.518-104.627-77.476-111.901-132.777
						c-4.149-31.54,2.318-64.502,20.892-95.12c2.554-4.218,5.777-8.998,8.764-13.019L421.29,365.442z M328.581,517.833
						l92.252-152.136l-173.975-87.835c-2.948,3.972-6.109,8.671-8.619,12.81c-18.528,30.553-24.971,63.423-20.832,94.89
						C224.656,440.671,264.376,491.451,328.581,517.833"/>
				</g>
				<g>
					<polygon fill="#1B6E92" points="429.791,369.179 430.67,401.677 338.404,553.842 337.525,521.344 					"/>
				</g>
				<g enable-background="new    ">
					<defs>
						<path id="SVGID_21_" enable-background="new    " d="M366.312,563.28c-4.659-1.233-9.256-2.62-13.875-4.185
							c-0.293-10.833-0.586-21.665-0.879-32.498c4.619,1.564,9.216,2.951,13.875,4.185c0.161,5.41,0.293,10.82,0.438,16.231
							C365.952,550.053,366.311,563.279,366.312,563.28z"/>
					</defs>
					<clipPath id="SVGID_22_">
						<use xlink:href="#SVGID_21_"  overflow="visible"/>
					</clipPath>
					<g clip-path="url(#SVGID_22_)" enable-background="new    ">
						<path fill="#005A7C" d="M427.544,538.718l0.88,32.498c-10.807-0.012-21.742-0.733-32.728-2.21
							c-21.005-2.824-38.282-7.396-57.292-15.164l-0.879-32.498c19.01,7.768,36.286,12.34,57.292,15.164
							C405.803,537.984,416.738,538.706,427.544,538.718"/>
					</g>
				</g>
				<g enable-background="new    ">
					<defs>
						<path id="SVGID_23_" enable-background="new    " d="M366.31,563.203c-0.302-10.785-0.568-21.57-0.875-32.355
							c-0.001-0.021-0.001-0.044-0.002-0.065c4.659,1.232,9.38,2.312,14.249,3.258c0.293,10.833,0.587,21.665,0.879,32.498l0,0
							c-4.868-0.946-9.59-2.025-14.249-3.258C366.311,563.255,366.311,563.229,366.31,563.203z"/>
					</defs>
					<clipPath id="SVGID_24_">
						<use xlink:href="#SVGID_23_"  overflow="visible"/>
					</clipPath>
					<g clip-path="url(#SVGID_24_)" enable-background="new    ">
						<path fill="#005A7C" d="M427.544,538.718l0.88,32.498c-10.807-0.012-21.742-0.733-32.728-2.21
							c-21.005-2.824-38.282-7.396-57.292-15.164l-0.879-32.498c19.01,7.768,36.286,12.34,57.292,15.164
							C405.803,537.984,416.738,538.706,427.544,538.718"/>
					</g>
				</g>
				<g enable-background="new    ">
					<defs>
						<path id="SVGID_25_" enable-background="new    " d="M380.581,566.542c-0.007-0.001-0.014-0.002-0.021-0.004
							c-0.165-6.127-0.331-12.253-0.497-18.38c-0.017-0.636-0.04-1.484-0.057-2.121c-0.018-0.63-0.04-1.471-0.058-2.102
							c-0.072-2.677-0.145-5.354-0.217-8.03c-0.016-0.56-0.051-1.306-0.051-1.865c4.869,0.947,9.886,1.762,15.136,2.468
							c0.293,10.833,0.586,21.665,0.879,32.498C390.454,568.301,385.443,567.487,380.581,566.542
							c-0.292-10.812-0.585-21.621-0.878-32.433C379.996,544.921,380.289,555.73,380.581,566.542z"/>
					</defs>
					<clipPath id="SVGID_26_">
						<use xlink:href="#SVGID_25_"  overflow="visible"/>
					</clipPath>
					<g clip-path="url(#SVGID_26_)" enable-background="new    ">
						<path fill="#005A7C" d="M427.544,538.718l0.88,32.498c-10.807-0.012-21.742-0.733-32.728-2.21
							c-21.005-2.824-38.282-7.396-57.292-15.164l-0.879-32.498c19.01,7.768,36.286,12.34,57.292,15.164
							C405.803,537.984,416.738,538.706,427.544,538.718"/>
					</g>
				</g>
				<g enable-background="new    ">
					<defs>
						<path id="SVGID_27_" enable-background="new    " d="M632.354,429.105c-16.137,76.222-91.173,132.208-179.549,140.926
							c-0.294-10.833-0.586-21.665-0.88-32.498c88.377-8.718,163.413-64.704,179.549-140.926c0.008,0.292,0.017,0.585,0.024,0.877
							c-0.008-0.292-0.017-0.585-0.024-0.877c0.022-0.103,0.044-0.206,0.065-0.309c0.152,5.615,0.268,11.23,0.405,16.847
							c0.068,2.766,0.137,5.531,0.208,8.297c0.03,1.185,0.071,2.765,0.102,3.949C632.284,426.506,632.455,427.995,632.354,429.105z"
							/>
					</defs>
					<clipPath id="SVGID_28_">
						<use xlink:href="#SVGID_27_"  overflow="visible"/>
					</clipPath>
					<g clip-path="url(#SVGID_28_)" enable-background="new    ">
						<path fill="#00688F" d="M631.54,396.299l0.879,32.498c-1.28,6.111-2.938,12.093-4.952,17.932l-0.879-32.498
							C628.602,408.392,630.26,402.41,631.54,396.299"/>
						<path fill="#006C94" d="M626.588,414.23l0.879,32.498c-7.2,20.874-18.939,39.912-34.146,56.48l-0.879-32.498
							C607.648,454.143,619.388,435.104,626.588,414.23"/>
						<path fill="#00688F" d="M592.441,470.711l0.879,32.498c-13.011,14.174-28.56,26.54-45.977,36.699l-0.879-32.498
							C563.882,497.251,579.431,484.885,592.441,470.711"/>
						<path fill="#00658B" d="M546.465,507.41l0.879,32.498c-11.721,6.837-24.287,12.674-37.495,17.391l-0.879-32.498
							C522.178,520.084,534.744,514.247,546.465,507.41"/>
						<path fill="#006186" d="M508.97,524.801l0.879,32.498c-12.144,4.337-24.829,7.726-37.897,10.074l-0.879-32.498
							C484.141,532.526,496.826,529.138,508.97,524.801"/>
						<path fill="#005E81" d="M471.072,534.875l0.879,32.498c-6.299,1.131-12.687,2.021-19.146,2.658
							c-8.029,0.792-16.168,1.193-24.382,1.185l-0.88-32.498c8.215,0.009,16.354-0.393,24.382-1.185
							C458.386,536.896,464.773,536.006,471.072,534.875"/>
					</g>
				</g>
				<g enable-background="new    ">
					<defs>
						<path id="SVGID_29_" enable-background="new    " d="M424.521,571.181c-0.29-10.808-0.566-21.613-0.857-32.421
							c0.071,2.379,0.236,7.95,0.514,18.333c0.058,2.095,0.114,4.189,0.171,6.284c0.033,1.204,0.077,2.811,0.109,4.016
							c0.016,0.578,0.036,1.35,0.052,1.928c0.016,0.558,0.051,1.303,0.051,1.861C424.547,571.181,424.534,571.181,424.521,571.181z"
							/>
					</defs>
					<clipPath id="SVGID_30_">
						<use xlink:href="#SVGID_29_"  overflow="visible"/>
					</clipPath>
					<g clip-path="url(#SVGID_30_)" enable-background="new    ">
						<path fill="#005A7C" d="M427.544,538.718l0.88,32.498c-10.807-0.012-21.742-0.733-32.728-2.21
							c-21.005-2.824-38.282-7.396-57.292-15.164l-0.879-32.498c19.01,7.768,36.286,12.34,57.292,15.164
							C405.803,537.984,416.738,538.706,427.544,538.718"/>
					</g>
				</g>
				<g enable-background="new    ">
					<defs>
						<path id="SVGID_31_" enable-background="new    " d="M410.178,570.521c-0.007,0-0.014-0.001-0.02-0.001
							c-0.293-10.834-0.587-21.665-0.879-32.498c4.812,0.361,9.609,0.58,14.382,0.66c0,0.002,0,0.003,0,0.005
							c0.014,0.646,0.035,1.291,0.053,1.937c0.272,10.187,0.533,20.371,0.807,30.557
							C419.761,571.101,414.978,570.882,410.178,570.521c-0.293-10.814-0.585-21.628-0.878-32.443
							C409.593,548.894,409.885,559.707,410.178,570.521z"/>
					</defs>
					<clipPath id="SVGID_32_">
						<use xlink:href="#SVGID_31_"  overflow="visible"/>
					</clipPath>
					<g clip-path="url(#SVGID_32_)" enable-background="new    ">
						<path fill="#005A7C" d="M427.544,538.718l0.88,32.498c-10.807-0.012-21.742-0.733-32.728-2.21
							c-21.005-2.824-38.282-7.396-57.292-15.164l-0.879-32.498c19.01,7.768,36.286,12.34,57.292,15.164
							C405.803,537.984,416.738,538.706,427.544,538.718"/>
					</g>
				</g>
				<g enable-background="new    ">
					<defs>
						<path id="SVGID_33_" enable-background="new    " d="M438.782,571.009c-0.007,0-0.013,0.001-0.019,0.001
							c-0.294-10.833-0.586-21.665-0.88-32.498c4.714-0.193,9.396-0.521,14.042-0.979c0.294,10.833,0.586,21.665,0.88,32.498
							C448.166,570.488,443.489,570.816,438.782,571.009c-0.292-10.8-0.584-21.599-0.876-32.399
							C438.198,549.41,438.49,560.209,438.782,571.009z"/>
					</defs>
					<clipPath id="SVGID_34_">
						<use xlink:href="#SVGID_33_"  overflow="visible"/>
					</clipPath>
					<g clip-path="url(#SVGID_34_)" enable-background="new    ">
						<path fill="#005E81" d="M471.072,534.875l0.879,32.498c-6.299,1.131-12.687,2.021-19.146,2.658
							c-8.029,0.792-16.168,1.193-24.382,1.185l-0.88-32.498c8.215,0.009,16.354-0.393,24.382-1.185
							C458.386,536.896,464.773,536.006,471.072,534.875"/>
					</g>
				</g>
				<g enable-background="new    ">
					<defs>
						<path id="SVGID_35_" enable-background="new    " d="M424.56,571.182c-0.435-16.1-0.677-24.887-0.896-32.422
							c-0.001-0.025-0.001-0.052-0.002-0.077c4.767,0.08,9.51,0.022,14.223-0.171c0.166,6.13,0.332,12.258,0.498,18.388
							c0.017,0.637,0.04,1.484,0.057,2.121c0.018,0.63,0.04,1.471,0.058,2.102c0.017,0.621,0.039,1.45,0.056,2.072
							c0.017,0.61,0.038,1.425,0.055,2.035c0.017,0.596,0.038,1.391,0.054,1.987c0.016,0.578,0.037,1.351,0.053,1.93
							c0.015,0.559,0.051,1.304,0.051,1.863C434.057,571.202,429.319,571.261,424.56,571.182z"/>
					</defs>
					<clipPath id="SVGID_36_">
						<use xlink:href="#SVGID_35_"  overflow="visible"/>
					</clipPath>
					<g clip-path="url(#SVGID_36_)" enable-background="new    ">
						<path fill="#005E81" d="M471.072,534.875l0.879,32.498c-6.299,1.131-12.687,2.021-19.146,2.658
							c-8.029,0.792-16.168,1.193-24.382,1.185l-0.88-32.498c8.215,0.009,16.354-0.393,24.382-1.185
							C458.386,536.896,464.773,536.006,471.072,534.875"/>
						<path fill="#005A7C" d="M427.544,538.718l0.88,32.498c-10.807-0.012-21.742-0.733-32.728-2.21
							c-21.005-2.824-38.282-7.396-57.292-15.164l-0.879-32.498c19.01,7.768,36.286,12.34,57.292,15.164
							C405.803,537.984,416.738,538.706,427.544,538.718"/>
					</g>
				</g>
				<g>
					<path fill="#00A0DB" d="M429.791,369.178l201.749,27.121c-15.999,76.379-91.118,132.505-179.614,141.234
						c-18.59,1.834-37.772,1.573-57.108-1.025c-21.006-2.824-38.282-7.396-57.292-15.164L429.791,369.178z"/>
				</g>
				<g enable-background="new    ">
					<defs>
						<path id="SVGID_37_" enable-background="new    " d="M632.12,395.956l0.879,32.498
							c-15.987,76.873-91.349,133.233-180.14,141.991c-18.635,1.839-37.862,1.576-57.253-1.025
							c-21.127-2.842-38.518-7.456-57.655-15.301l-0.879-32.498c19.138,7.845,36.528,12.458,57.655,15.301
							c19.391,2.602,38.618,2.863,57.253,1.025C540.771,529.189,616.133,472.829,632.12,395.956z"/>
					</defs>
					<clipPath id="SVGID_38_">
						<use xlink:href="#SVGID_37_"  overflow="visible"/>
					</clipPath>
					<g clip-path="url(#SVGID_38_)" enable-background="new    ">
						<path fill="#196688" d="M632.12,395.956l0.879,32.498c-1.294,6.225-2.979,12.315-5.027,18.257l-0.879-32.498
							C629.142,408.271,630.826,402.181,632.12,395.956"/>
						<path fill="#19698C" d="M627.093,414.213l0.879,32.498c-7.237,20.988-19.029,40.119-34.299,56.757l-0.879-32.498
							C608.063,454.332,619.855,435.201,627.093,414.213"/>
						<path fill="#196688" d="M592.794,470.97l0.879,32.498c-13.048,14.218-28.636,26.615-46.092,36.798l-0.879-32.498
							C564.158,497.585,579.746,485.188,592.794,470.97"/>
						<path fill="#186383" d="M546.702,507.768l0.879,32.498c-11.743,6.851-24.332,12.698-37.563,17.423l-0.879-32.498
							C522.369,520.466,534.959,514.618,546.702,507.768"/>
						<path fill="#175F7F" d="M509.139,525.19l0.879,32.498c-12.167,4.346-24.877,7.74-37.97,10.093l-0.879-32.498
							C484.262,532.931,496.972,529.535,509.139,525.19"/>
						<path fill="#165C7A" d="M471.169,535.283l0.879,32.498c-6.313,1.134-12.715,2.025-19.188,2.664
							c-8.047,0.794-16.204,1.196-24.438,1.188l-0.879-32.498c8.233,0.009,16.391-0.394,24.438-1.188
							C458.454,537.309,464.855,536.417,471.169,535.283"/>
						<path fill="#155876" d="M427.543,539.135l0.879,32.498c-10.833-0.012-21.798-0.734-32.815-2.213
							c-21.127-2.842-38.518-7.456-57.655-15.301l-0.879-32.498c19.138,7.845,36.528,12.458,57.655,15.301
							C405.745,538.399,416.71,539.123,427.543,539.135"/>
					</g>
				</g>
				<g>
					<path fill="#269CCF" d="M429.432,368.854l202.688,27.103c-15.987,76.873-91.349,133.233-180.14,141.991
						c-18.635,1.838-37.862,1.576-57.253-1.025c-21.127-2.843-38.518-7.456-57.655-15.301L429.432,368.854z M451.926,537.533
						c88.496-8.729,163.615-64.855,179.614-141.234l-201.749-27.12l-92.266,152.165c19.01,7.768,36.286,12.34,57.292,15.164
						C414.153,539.107,433.336,539.367,451.926,537.533"/>
				</g>
			</g>
		</g>
	</g>
	<g>
		<path d="M594.914,228.647l1.494-1.04l6.593,9.472l5.01-3.487l0.956,1.375l-6.502,4.526L594.914,228.647z"/>
		<path d="M614.662,228.437c0.278,0.399,0.607,0.872,1.252,0.379l0.73,1.049c-0.672,0.423-1.16,0.698-1.867,0.533
			c-0.201-0.036-0.629-0.178-0.92-0.501l-0.064,0.002c-0.047,0.121-0.137,0.687-0.169,0.797c-0.353,1.385-0.877,1.86-1.571,2.344
			c-1.094,0.761-2.505,0.406-3.194-0.585c-0.669-0.96-0.714-2.003-0.384-2.979c0.41-1.208,1.438-2.251,2.699-3.151l-0.699-1.005
			c-0.217-0.31-0.741-1.063-1.953-0.22c-0.769,0.535-1.288,1.489-1.666,2.366l-1.265-0.588c0.6-1.186,1.038-2.039,2.278-2.902
			c0.548-0.381,1.404-0.758,2.134-0.718c0.845,0.048,1.409,0.511,1.943,1.279L614.662,228.437z M611.719,227.107
			c-1.615,1.147-2.646,2.786-1.7,4.145c0.452,0.651,1.286,0.903,1.995,0.41c0.858-0.597,1.055-1.764,1.176-2.441L611.719,227.107z"
			/>
		<path d="M612.335,222.072l1.108-0.771l-1.225-1.758l0.408-2.062l0.147-0.103l2.058,2.956l1.228-0.854l0.585,0.842l-1.301,0.906
			l3.199,4.597c0.104,0.147,0.484,0.694,1.135,0.241c0.442-0.309,0.766-0.885,1.002-1.334l0.812,1.168
			c-0.244,0.5-0.797,1.125-1.24,1.433c-0.354,0.247-1.855,1.116-2.926-0.421l-3.312-4.758l-1.094,0.762L612.335,222.072z"/>
		<path d="M615.866,214.479l1.714-1.193l0.979,1.404l-1.715,1.193L615.866,214.479z M618.049,217.172l1.33-0.925l5.379,7.729
			l-1.329,0.925L618.049,217.172z"/>
		<path d="M622.007,214.857l0.872-1.331l1.049,1.507c0.042,0.059,0.146,0.117,0.221,0.065s0.096-0.241,0.108-0.382l0.019-0.604
			c0.025-0.939,0.389-1.741,1.172-2.286c0.354-0.247,0.771-0.405,1.211-0.404c0.454-0.009,0.941,0.156,1.723,1.279l4.105,5.896
			l-1.301,0.905l-4.084-5.867c-0.143-0.207-0.709-1.02-1.479-0.484c-0.694,0.484-0.74,1.614-0.753,1.754
			c-0.036,0.925-0.011,1.214-0.001,1.229l3.641,5.231l-1.329,0.926L622.007,214.857z"/>
		<path d="M634.541,200.757c-0.171,1.172,0.105,3.239,0.168,3.613c0.123,0.681,0.371,2.045,1.481,3.641
			c1.738,2.498,4.44,3.448,6.245,4.056l-1.375,0.957c-1.281-0.424-2.702-1.015-3.91-1.93c-0.663-0.481-1.545-1.337-2.008-2.002
			c-1.419-2.039-2.011-3.931-1.99-7.367L634.541,200.757z"/>
		<path d="M637.846,202.011c-0.203-1.175-0.174-1.984,0.309-3.023c0.437-0.918,1.095-1.486,1.523-1.784
			c0.916-0.638,3.654-1.842,5.465,0.759c0.298,0.429,0.669,1.245,0.686,2.089c0.021,0.755-0.059,1.555-0.693,3.511l-0.574,1.76
			c-0.282,0.854-0.217,1.643-0.199,1.762c0.023,0.444,0.139,0.672,0.331,1.043l5.099-3.549l0.926,1.33l-6.74,4.691
			c-1.705-2.608-1.46-4.336-0.49-7.293c0.489-1.502,1.026-3.127,0.172-4.354c-0.514-0.739-1.662-1.475-3.021-0.528
			c-0.77,0.535-1.597,1.616-1.135,3.509L637.846,202.011z"/>
		<path d="M654.592,203.54c0.15-1.202,0.322-2.374,0.22-3.971c-0.066-1.073-0.33-2.491-0.795-3.285
			c-0.15,0.477-0.427,1.372-1.55,2.153c-2.32,1.615-4.623,0.607-5.785-1.062c-1.101-1.581-1.413-4.172,1.158-5.961
			c1.139-0.792,2.344-0.951,3.277-0.745c1.358,0.282,2.393,1.295,3.02,2.196c1.092,1.567,1.722,3.103,2.054,4.714
			c0.446,2.123,0.384,3.638,0.353,4.603L654.592,203.54z M651.752,197.158c0.872-0.607,1.691-2.011,0.52-3.696
			c-0.957-1.374-2.455-1.669-3.638-0.846c-0.576,0.401-0.983,1.014-1.085,1.72c-0.117,0.872,0.234,1.439,0.594,1.956
			C649.007,197.532,650.51,198.022,651.752,197.158z"/>
		<path d="M660.307,187.013c1.07,1.537,0.697,3.617-0.796,4.657c-1.478,1.028-3.525,0.764-4.595-0.772
			c-0.978-1.404-0.805-3.455,0.955-4.679C657.098,185.364,659.227,185.461,660.307,187.013z M656.541,187.463
			c-0.813,0.565-1.117,1.676-0.469,2.606c0.648,0.931,1.785,1.019,2.598,0.453c0.871-0.606,1.068-1.775,0.472-2.632
			C658.637,187.166,657.471,186.815,656.541,187.463z M663.444,180.616l0.833,16.292l-0.961,0.669l-0.832-16.292L663.444,180.616z
			 M671.834,187.215c1.049,1.508,0.686,3.538-0.808,4.577c-1.463,1.018-3.53,0.79-4.61-0.762c-1.09-1.566-0.597-3.6,0.866-4.618
			C668.672,185.446,670.795,185.723,671.834,187.215z M670.244,190.669c0.902-0.627,0.992-1.854,0.438-2.652
			c-0.617-0.886-1.813-0.997-2.598-0.452c-0.887,0.617-1.107,1.78-0.541,2.593C668.222,191.134,669.432,191.235,670.244,190.669z"/>
		<path d="M675.822,188.827c0.006-0.18,0.021-0.979,0.012-1.149c-0.008-0.39-0.117-1.651-0.121-1.78
			c-0.277-2.417-1.131-3.644-1.543-4.235c-0.514-0.739-1.574-2.261-4.816-3.579c-0.217-0.091-1.233-0.48-1.439-0.556l1.346-0.936
			c2.213,0.849,4.342,1.671,6.112,4.213c1.759,2.526,1.82,5.577,1.8,6.556c-0.007,0.181-0.014,0.359-0.004,0.53L675.822,188.827z"/>
	</g>
	<g>
		<path d="M549.068,551.329l4.01,7.082l-1.458,0.826l-3.078-5.438l-3.478,1.969l2.217,3.918l-1.457,0.824l-2.217-3.918l-5.108,2.893
			l-0.931-1.646L549.068,551.329z"/>
		<path d="M550.007,561.429l1.278,1.016l-2.602,1.473c-0.094,0.053-0.17,0.139-0.144,0.184l0.098,0.174
			c0.163,0.031,0.872,0.043,1.027,0.061c2.161,0.162,3.136,0.934,3.323,1.117l-2.32,1.312c-0.066-0.189-0.146-0.371-0.244-0.543
			c-0.551-0.973-1.661-1.398-2.788-1.525l-4.685,2.652l-0.826-1.457L550.007,561.429z"/>
		<path d="M552.85,575.626l-2.75-4.857c-1.842,1.021-2.762,2.246-1.938,3.703c0.541,0.955,1.254,1.152,1.629,1.271l-0.29,1.24
			c-0.772-0.268-1.7-0.59-2.542-2.078c-1.073-1.896-0.324-4.08,2.246-5.535c4.168-2.359,5.914-0.078,6.331,0.658
			c1.118,1.975,0.035,3.973-1.943,5.156L552.85,575.626z M553.008,573.673c1.409-0.797,2.158-1.924,1.528-3.037
			c-0.382-0.674-1.091-0.977-1.868-0.887c-0.737,0.086-1.295,0.381-1.586,0.525L553.008,573.673z"/>
		<path d="M557.908,575.386l1.244,0.992l-1.598,0.904c-0.063,0.037-0.131,0.137-0.086,0.215s0.231,0.117,0.37,0.143l0.6,0.074
			c0.934,0.113,1.698,0.549,2.169,1.379c0.213,0.377,0.33,0.807,0.289,1.244c-0.033,0.453-0.243,0.922-1.434,1.596l-6.252,3.541
			l-0.78-1.379l6.221-3.521c0.22-0.125,1.081-0.611,0.62-1.428c-0.418-0.736-1.538-0.887-1.676-0.912
			c-0.918-0.123-1.209-0.125-1.225-0.115l-5.547,3.139l-0.797-1.408L557.908,575.386z"/>
		<path d="M562.6,588.245c0.29-0.33,1.053-1.176,0.512-2.131c-0.55-0.973-1.984-1.131-3.678-0.174
			c-0.688,0.391-1.555,0.943-2.004,1.465c-0.472,0.557-0.941,1.443-0.436,2.338c0.487,0.861,1.453,0.852,2.355,0.506l0.146,1.574
			c-1.498,0.496-2.919-0.004-3.708-1.398c-1.774-3.133,1.863-5.297,2.318-5.553c0.783-0.445,2.084-1.18,3.697-0.998
			c1.396,0.164,2.107,0.98,2.426,1.545c0.188,0.328,0.731,1.51,0.233,2.641c-0.224,0.52-0.298,0.645-0.591,1.039L562.6,588.245z"/>
		<path d="M569.533,588.247l1.379,1.082l-4.826,2.732c-0.11,0.062-0.139,0.119-0.086,0.213c0.044,0.078,0.424,0.092,0.707,0.117
			c1.255,0.098,1.916,0.717,2.314,1.422c0.656,1.158,0.123,2.08-1.067,2.754l-6.408,3.629l-0.789-1.395l6.362-3.602
			c0.594-0.336,0.879-0.746,0.543-1.342c-0.17-0.299-0.487-0.531-0.891-0.695c-0.56-0.223-1.426-0.289-2.033-0.34l-5.578,3.158
			l-0.799-1.41L569.533,588.247z"/>
		<path d="M579.154,603.962c-1.151-0.279-3.235-0.195-3.612-0.168c-0.69,0.059-2.071,0.18-3.763,1.137
			c-2.648,1.5-3.846,4.102-4.619,5.842l-0.824-1.457c0.541-1.236,1.262-2.596,2.283-3.715c0.541-0.615,1.477-1.414,2.182-1.812
			c2.162-1.225,4.1-1.639,7.52-1.299L579.154,603.962z"/>
		<path d="M577.599,607.136c1.189-0.094,1.993,0.012,2.981,0.59c0.875,0.518,1.379,1.227,1.635,1.68
			c0.551,0.973,1.495,3.811-1.263,5.371c-0.454,0.258-1.302,0.551-2.144,0.49c-0.753-0.051-1.543-0.203-3.431-1.018l-1.699-0.734
			c-0.824-0.359-1.615-0.367-1.735-0.361c-0.444-0.018-0.682,0.074-1.069,0.232l3.061,5.406l-1.409,0.797l-4.045-7.145
			c2.754-1.457,4.452-1.053,7.306,0.189c1.451,0.625,3.019,1.311,4.319,0.574c0.783-0.443,1.623-1.518,0.807-2.959
			c-0.461-0.816-1.46-1.74-3.389-1.455L577.599,607.136z"/>
		<path d="M574.523,623.669c1.182,0.26,2.333,0.541,3.934,0.586c1.073,0.033,2.51-0.096,3.344-0.486
			c-0.461-0.193-1.326-0.553-2-1.742c-1.393-2.461-0.176-4.66,1.595-5.662c1.677-0.949,4.285-1.02,5.829,1.707
			c0.683,1.207,0.729,2.422,0.438,3.332c-0.408,1.326-1.513,2.264-2.468,2.803c-1.661,0.941-3.249,1.426-4.884,1.607
			c-2.156,0.248-3.658,0.043-4.617-0.076L574.523,623.669z M581.141,621.433c0.523,0.926,1.846,1.871,3.633,0.861
			c1.457-0.826,1.89-2.291,1.18-3.543c-0.346-0.611-0.918-1.074-1.612-1.24c-0.856-0.197-1.454,0.1-2.002,0.408
			C581.022,618.665,580.396,620.116,581.141,621.433z"/>
		<path d="M596.525,634.608l-16.299-0.682l-0.577-1.02l16.3,0.684L596.525,634.608z M589.176,642.351
			c-1.599,0.904-3.586,0.354-4.482-1.229c-0.878-1.553-0.459-3.59,1.187-4.521c1.661-0.939,3.639-0.26,4.517,1.293
			C591.23,639.366,590.758,641.454,589.176,642.351z M590.447,630.892c-1.629,0.922-3.666,0.359-4.562-1.225
			c-0.887-1.566-0.434-3.582,1.195-4.504c1.488-0.844,3.515-0.48,4.57,1.385C592.387,627.849,592.094,629.96,590.447,630.892z
			 M585.885,640.448c0.541,0.955,1.752,1.158,2.599,0.68c0.94-0.531,1.162-1.713,0.691-2.543c-0.532-0.939-1.669-1.27-2.532-0.781
			C585.609,638.39,585.396,639.585,585.885,640.448z M590.349,627.099c-0.488-0.861-1.565-1.266-2.552-0.707
			c-0.988,0.559-1.18,1.682-0.691,2.545c0.522,0.924,1.668,1.227,2.576,0.713C590.449,629.214,590.907,628.087,590.349,627.099z"/>
		<path d="M587.201,646.173c0.178,0.021,0.973,0.111,1.143,0.117c0.389,0.029,1.654,0.037,1.784,0.045
			c2.433-0.053,3.732-0.789,4.359-1.143c0.784-0.443,2.397-1.357,4.011-4.465c0.111-0.207,0.593-1.184,0.688-1.381l0.807,1.426
			c-1.051,2.125-2.066,4.17-4.762,5.695c-2.68,1.516-5.723,1.295-6.695,1.184c-0.18-0.023-0.357-0.045-0.527-0.053L587.201,646.173z
			"/>
		<path d="M533.532,562.638c-0.831-0.203-2.335-0.143-2.608-0.121c-0.498,0.043-1.496,0.129-2.718,0.82
			c-1.912,1.082-2.775,2.961-3.334,4.219l-0.595-1.053c0.39-0.893,0.91-1.875,1.648-2.682c0.391-0.445,1.064-1.021,1.574-1.311
			c1.561-0.883,2.961-1.182,5.43-0.938L533.532,562.638z"/>
		<path d="M532.068,565.991l0.576,1.018l-5.916,3.35l-0.577-1.02L532.068,565.991z M534.15,564.603l0.744,1.312l-1.074,0.607
			l-0.744-1.312L534.15,564.603z"/>
		<path d="M533.469,568.991l0.899,0.717l-1.153,0.652c-0.047,0.027-0.096,0.1-0.063,0.156s0.168,0.084,0.269,0.102l0.433,0.055
			c0.674,0.082,1.226,0.396,1.564,0.996c0.154,0.271,0.239,0.58,0.21,0.896c-0.023,0.328-0.176,0.666-1.035,1.152l-4.515,2.557
			l-0.563-0.996l4.492-2.541c0.158-0.09,0.781-0.443,0.447-1.031c-0.301-0.531-1.109-0.641-1.209-0.658
			c-0.663-0.088-0.873-0.09-0.885-0.084l-4.005,2.268l-0.576-1.018L533.469,568.991z"/>
		<path d="M536.857,578.276c0.209-0.236,0.761-0.848,0.37-1.537c-0.397-0.701-1.434-0.818-2.655-0.127
			c-0.498,0.283-1.125,0.682-1.447,1.059c-0.341,0.402-0.68,1.043-0.314,1.688c0.352,0.623,1.049,0.615,1.701,0.367l0.105,1.135
			c-1.082,0.359-2.108-0.002-2.678-1.008c-1.281-2.264,1.345-3.824,1.673-4.01c0.565-0.32,1.505-0.854,2.67-0.721
			c1.008,0.117,1.521,0.707,1.752,1.115c0.134,0.238,0.528,1.092,0.168,1.906c-0.161,0.375-0.214,0.467-0.427,0.75L536.857,578.276z
			"/>
		<path d="M542.037,578.585l0.855,0.666l0.084,0.148l-8.43,4.771l-0.576-1.02L542.037,578.585z"/>
		<path d="M537.219,589.231l1.098-0.621c0.045-0.025,0.134-0.105,0.107-0.15c-0.025-0.045-0.038-0.068-0.091-0.084
			c-0.224-0.051-0.591-0.066-0.88-0.129c-0.572-0.139-1.037-0.459-1.306-0.934c-0.364-0.645-0.265-1.42,0.821-2.033l4.559-2.582
			l0.576,1.02l-4.264,2.414c-0.294,0.166-1.041,0.59-0.695,1.201c0.281,0.496,0.988,0.559,2.13,0.676l3.981-2.254l0.558,0.984
			l-5.724,3.24L537.219,589.231z"/>
		<path d="M549.601,591.021l-8.247,4.67l-0.867-0.66l1.275-0.781c0.046-0.025,0.061-0.078,0.041-0.113
			c-0.032-0.057-0.123-0.033-0.27-0.027c-0.099,0.012-1.086-0.043-1.458-0.279c-0.162-0.102-0.376-0.295-0.511-0.533
			c-0.704-1.244,0.213-2.658,2.113-3.734c1.256-0.711,3.269-1.193,4.062,0.209c0.391,0.689,0.21,1.137-0.017,1.713
			c-0.026,0.061-0.063,0.125-0.09,0.184c-0.021,0.043-0.124,0.178-0.093,0.232c0.025,0.047,0.102,0.047,0.17,0.01l2.952-1.672
			L549.601,591.021z M540.555,593.065c0.518,0.916,2.029,0.658,3.025,0.094c1.301-0.736,1.941-1.875,1.506-2.645
			c-0.493-0.871-1.678-0.588-3.068,0.199C541.496,591.009,539.939,591.979,540.555,593.065z"/>
		<path d="M547.25,599.956l-1.986-3.506c-1.33,0.738-1.995,1.621-1.399,2.674c0.391,0.689,0.904,0.832,1.177,0.916l-0.209,0.896
			c-0.559-0.191-1.229-0.426-1.836-1.5c-0.775-1.369-0.234-2.945,1.621-3.996c3.01-1.703,4.27-0.057,4.571,0.475
			c0.808,1.426,0.026,2.869-1.403,3.723L547.25,599.956z M547.363,598.548c1.018-0.576,1.558-1.391,1.104-2.193
			c-0.276-0.488-0.787-0.705-1.35-0.643c-0.533,0.064-0.935,0.277-1.145,0.381L547.363,598.548z"/>
		<path d="M551.463,602.993c0.067-0.621,0.121-1.055-0.213-1.643c-0.352-0.621-0.895-0.658-1.28-0.439
			c-0.44,0.25-0.469,0.729-0.444,1.191l0.062,1.221c0.027,0.418,0.078,1.404-0.929,1.975c-1.052,0.596-2.249,0.197-2.889-0.934
			c-0.487-0.861-0.448-1.584-0.421-2.062l0.992-0.039c-0.131,0.82-0.086,1.244,0.183,1.719c0.365,0.645,1.011,0.758,1.499,0.48
			c0.485-0.273,0.498-0.596,0.429-1.826c-0.083-1.387,0.139-2.049,0.919-2.492c1.029-0.582,2.098-0.098,2.629,0.842
			c0.237,0.42,0.471,0.885,0.433,1.848L551.463,602.993z"/>
		<path d="M553.41,613.452l-1.857-3.281l-2.025,0.461l-0.686-1.211l9.822-2.02l0.736,1.301l-6.716,7.506L552,614.999L553.41,613.452
			z M554.186,612.581l3.488-3.709c0.018-0.023,0.033-0.047,0.014-0.082c-0.02-0.033-0.059-0.025-0.088-0.023l-4.918,1.156
			L554.186,612.581z"/>
		<path d="M559.041,614.163l0.899,0.717l-1.153,0.654c-0.047,0.025-0.096,0.098-0.063,0.154s0.168,0.084,0.269,0.102l0.433,0.055
			c0.674,0.082,1.226,0.396,1.564,0.996c0.154,0.271,0.239,0.58,0.21,0.898c-0.023,0.326-0.176,0.666-1.035,1.152l-4.514,2.555
			l-0.564-0.994l4.492-2.543c0.158-0.09,0.781-0.441,0.447-1.031c-0.301-0.531-1.109-0.641-1.209-0.658
			c-0.663-0.088-0.873-0.09-0.885-0.084l-4.005,2.268l-0.576-1.018L559.041,614.163z"/>
		<path d="M564.337,622.937l0.462,0.816l-5.328,3.016c-0.328,0.186-0.941,0.398-1.074,0.428c-0.062,0.021-0.886,0.203-1.631-0.375
			c-0.158-0.121-0.606-0.463-1.004-1.166c-0.109-0.191-0.432-0.816-0.605-1.494l1.029-0.582l0.236,0.418
			c-0.114,0.273-0.227,0.576,0.139,1.223c0.313,0.553,0.762,0.764,0.803,0.785c0.615,0.293,1.271-0.078,1.543-0.232l0.859-0.486
			l0.031-0.076c-0.045-0.08-0.074-0.08-0.312-0.078c-0.238,0-1.019-0.111-1.486-0.938c-0.436-0.768-0.227-1.559,0.18-2.162
			c0.454-0.674,1.109-1.076,1.721-1.422c1.414-0.801,2.957-0.555,3.54,0.477c0.513,0.904,0.255,1.557-0.063,2.051
			c-0.107,0.18-0.129,0.193-0.125,0.279c0.049,0.035,0.104,0.078,0.205,0.02L564.337,622.937z M561.646,624.28
			c1.381-0.781,1.616-1.736,1.206-2.459c-0.665-1.178-2.271-0.268-2.792,0.027c-0.373,0.211-1.691,1.076-1.083,2.15
			C559.195,624.386,560.018,625.204,561.646,624.28z"/>
		<path d="M567.969,624.392l0.855,0.666l0.083,0.146l-8.429,4.771l-0.576-1.018L567.969,624.392z"/>
		<path d="M568.708,630.368c0.634,1.119,0.353,1.996-0.052,2.629c-0.366,0.564-1.141,1.229-1.718,1.555
			c-1.776,1.006-3.567,0.824-4.394-0.635c-0.582-1.031-0.295-1.762-0.14-2.146c0.304-0.756,0.999-1.404,2.017-1.98
			C566.481,628.624,568.016,629.146,568.708,630.368z M564.805,630.89c-0.452,0.256-2.037,1.361-1.371,2.539
			c0.615,1.086,2.104,0.496,2.952,0.016c0.396-0.223,0.98-0.645,1.288-0.996c0.309-0.355,0.416-0.744,0.375-1.08
			c-0.02-0.168-0.08-0.326-0.164-0.475C567.252,629.774,565.721,630.37,564.805,630.89z"/>
		<path d="M567.915,635.194l1.658,2.93l-0.95,0.537l-1.658-2.93L567.915,635.194z"/>
		<path d="M575.398,636.962l2.895,5.113l-1.052,0.596l-2.222-3.924l-2.512,1.42l1.602,2.828l-1.053,0.596l-1.602-2.828l-3.688,2.088
			l-0.673-1.188L575.398,636.962z"/>
		<path d="M576.078,644.257l0.922,0.732l-1.877,1.062c-0.068,0.039-0.125,0.1-0.105,0.135l0.071,0.125
			c0.117,0.021,0.63,0.031,0.741,0.041c1.561,0.119,2.266,0.676,2.4,0.809l-1.675,0.949c-0.048-0.139-0.108-0.27-0.178-0.393
			c-0.397-0.703-1.199-1.01-2.013-1.102l-3.383,1.914l-0.596-1.053L576.078,644.257z"/>
		<path d="M578.131,654.507l-1.985-3.506c-1.33,0.738-1.995,1.621-1.399,2.674c0.391,0.689,0.904,0.832,1.177,0.916l-0.21,0.896
			c-0.558-0.191-1.228-0.426-1.836-1.5c-0.774-1.369-0.232-2.945,1.622-3.996c3.009-1.703,4.271-0.057,4.571,0.475
			c0.808,1.426,0.026,2.869-1.402,3.723L578.131,654.507z M578.244,653.099c1.019-0.576,1.559-1.391,1.104-2.193
			c-0.275-0.488-0.787-0.705-1.349-0.641c-0.532,0.062-0.935,0.275-1.144,0.379L578.244,653.099z"/>
		<path d="M581.783,654.337l0.899,0.715l-1.153,0.654c-0.047,0.025-0.096,0.098-0.063,0.154s0.168,0.084,0.269,0.104l0.433,0.053
			c0.674,0.082,1.226,0.396,1.564,0.996c0.154,0.271,0.239,0.582,0.21,0.896c-0.023,0.328-0.176,0.668-1.035,1.154l-4.514,2.555
			l-0.564-0.994l4.492-2.543c0.158-0.09,0.781-0.441,0.447-1.029c-0.301-0.533-1.109-0.643-1.21-0.66
			c-0.662-0.088-0.872-0.09-0.884-0.084l-4.005,2.268l-0.576-1.018L581.783,654.337z"/>
		<path d="M585.172,663.622c0.21-0.238,0.761-0.848,0.369-1.539c-0.396-0.701-1.433-0.816-2.654-0.125
			c-0.498,0.281-1.125,0.682-1.447,1.059c-0.341,0.402-0.68,1.041-0.314,1.688c0.352,0.621,1.049,0.615,1.701,0.365l0.105,1.137
			c-1.083,0.357-2.108-0.002-2.678-1.01c-1.281-2.264,1.345-3.824,1.673-4.01c0.565-0.32,1.505-0.852,2.671-0.719
			c1.007,0.117,1.52,0.707,1.751,1.115c0.134,0.236,0.528,1.09,0.168,1.904c-0.161,0.375-0.214,0.467-0.427,0.75L585.172,663.622z"
			/>
		<path d="M590.18,663.626l0.994,0.781l-3.484,1.973c-0.079,0.045-0.1,0.086-0.061,0.154c0.031,0.057,0.306,0.064,0.51,0.084
			c0.906,0.07,1.384,0.516,1.672,1.025c0.474,0.838,0.089,1.502-0.771,1.99l-4.627,2.619l-0.57-1.008l4.594-2.6
			c0.43-0.244,0.637-0.539,0.393-0.969c-0.121-0.215-0.352-0.383-0.643-0.502c-0.405-0.16-1.03-0.209-1.469-0.244l-4.027,2.279
			l-0.576-1.018L590.18,663.626z"/>
		<path d="M585.162,674.054c0.129,0.016,0.703,0.08,0.826,0.086c0.28,0.021,1.194,0.025,1.287,0.033
			c1.757-0.039,2.695-0.57,3.148-0.826c0.565-0.32,1.731-0.98,2.896-3.225c0.08-0.148,0.428-0.854,0.496-0.996l0.582,1.029
			c-0.76,1.533-1.492,3.012-3.438,4.113c-1.936,1.094-4.132,0.934-4.835,0.854c-0.13-0.018-0.258-0.033-0.381-0.039L585.162,674.054
			z"/>
	</g>
	<g>
		<path d="M6.201,472.591c-0.329-0.534-1.101-1.776-2.556-1.436c-0.456,0.106-1.729,0.59-1.851,2.837
			c-0.07,1.2,0.336,2.936,0.349,2.988c0.324,1.385,0.79,2.664,1.57,3.626c0.961,1.182,2.029,1.006,2.397,0.919
			c0.965-0.226,1.45-0.913,1.594-1.169c0.499-0.95,0.375-1.642,0.208-2.508l-2.489,0.583l-0.382-1.631l4.189-0.981l1.45,6.189
			l-0.631,0.147l-0.592-0.713c-0.236-0.296-0.388-0.39-0.493-0.365c-0.07,0.017-0.149,0.072-0.207,0.141
			c-0.054,0.087-0.147,0.238-0.22,0.329c-0.28,0.38-0.963,1.335-2.33,1.656c-0.526,0.123-1.7,0.397-3.104-0.698
			c-1.555-1.188-2.406-3.559-2.743-4.997c-0.349-1.489-0.568-3.454-0.074-4.976c0.628-1.978,2.142-2.702,2.896-2.879
			c2.191-0.513,3.872,0.665,4.601,2.195L6.201,472.591z"/>
		<path d="M19.153,475.086l-5.435,1.273c0.463,2.055,1.379,3.282,3.01,2.9c1.069-0.25,1.458-0.878,1.678-1.206l1.108,0.628
			c-0.473,0.665-1.044,1.465-2.709,1.855c-2.121,0.497-4.005-0.838-4.679-3.713c-1.093-4.663,1.587-5.697,2.41-5.891
			c2.209-0.518,3.823,1.083,4.401,3.315L19.153,475.086z M17.325,474.386c-0.37-1.577-1.241-2.613-2.486-2.321
			c-0.754,0.177-1.242,0.772-1.376,1.543c-0.125,0.732,0.002,1.35,0.058,1.67L17.325,474.386z"/>
		<path d="M20.311,470.173l1.334-0.941l0.682,2.911c0.024,0.104,0.084,0.201,0.137,0.189l0.192-0.046
			c0.076-0.146,0.288-0.825,0.347-0.968c0.764-2.029,1.779-2.747,2.008-2.875l0.608,2.595c-0.201,0.01-0.398,0.037-0.592,0.082
			c-1.086,0.255-1.808,1.201-2.247,2.246l1.228,5.242l-1.631,0.383L20.311,470.173z"/>
		<path d="M27.218,468.48l1.262-0.85l0.505,2.156l0.134,0.098c0.114-0.063,0.128-0.085,0.204-0.232
			c0.586-1.21,0.649-1.335,1.006-1.789c0.244-0.298,0.635-0.76,1.354-0.928c1.42-0.333,1.885,0.779,2.174,1.618l0.06,0.022
			c0.018-0.004,0.031-0.026,0.049-0.03c0.093-0.077,0.144-0.255,0.211-0.363c0.963-1.649,1.518-2.205,2.43-2.418
			c0.228-0.054,0.866-0.166,1.428,0.331c0.327,0.293,0.484,0.57,0.816,1.99l1.564,6.68l-1.507,0.353l-1.527-6.521
			c-0.177-0.754-0.382-1.63-1.311-1.412c-0.685,0.16-1.148,1.101-1.879,2.641l1.421,6.065l-1.508,0.354l-1.594-6.803
			c-0.296-1.262-0.75-1.229-1.136-1.139c-0.333,0.078-0.602,0.271-1.094,1.015c-0.219,0.329-0.295,0.477-0.86,1.772l1.388,5.926
			l-1.507,0.354L27.218,468.48z"/>
		<path d="M48.782,470.642c0.11,0.474,0.242,1.034,1.022,0.814l0.292,1.245c-0.779,0.146-1.335,0.22-1.932-0.194
			c-0.174-0.108-0.519-0.397-0.67-0.806l-0.061-0.022c-0.089,0.095-0.38,0.589-0.451,0.679c-0.839,1.158-1.502,1.405-2.326,1.599
			c-1.297,0.304-2.476-0.547-2.751-1.723c-0.268-1.139,0.075-2.126,0.741-2.91c0.827-0.971,2.168-1.562,3.672-1.933l-0.279-1.193
			c-0.086-0.367-0.296-1.262-1.733-0.925c-0.911,0.214-1.747,0.909-2.421,1.585l-0.959-1.015c0.995-0.881,1.718-1.512,3.189-1.856
			c0.648-0.151,1.584-0.187,2.248,0.12c0.768,0.357,1.12,0.996,1.334,1.907L48.782,470.642z M46.537,468.319
			c-1.925,0.47-3.487,1.612-3.11,3.225c0.182,0.772,0.863,1.314,1.705,1.117c1.017-0.238,1.63-1.25,1.992-1.835L46.537,468.319z"/>
		<path d="M49.911,463.238l1.303-0.914l0.419,1.787c0.017,0.07,0.093,0.163,0.181,0.142c0.088-0.021,0.178-0.188,0.24-0.314
			l0.241-0.555c0.37-0.864,1.004-1.476,1.933-1.693c0.421-0.098,0.866-0.091,1.273,0.072c0.427,0.159,0.818,0.492,1.131,1.824
			l1.639,6.995l-1.542,0.361l-1.631-6.96c-0.057-0.245-0.283-1.209-1.195-0.996c-0.824,0.193-1.284,1.227-1.348,1.353
			c-0.375,0.846-0.457,1.124-0.453,1.141l1.453,6.206l-1.578,0.37L49.911,463.238z"/>
		<path d="M57.979,457.428l2.034-0.476l0.39,1.666l-2.033,0.476L57.979,457.428z M59.014,460.736l1.577-0.369l2.147,9.169
			l-1.577,0.369L59.014,460.736z"/>
		<path d="M68.441,461.21c-0.233-0.37-0.831-1.341-1.9-1.091c-1.087,0.255-1.644,1.588-1.2,3.481
			c0.181,0.771,0.468,1.758,0.843,2.335c0.402,0.609,1.121,1.31,2.12,1.076c0.964-0.227,1.227-1.156,1.149-2.119l1.551,0.303
			c0.055,1.577-0.823,2.801-2.384,3.167c-3.507,0.821-4.56-3.278-4.679-3.787c-0.205-0.877-0.546-2.332,0.084-3.829
			c0.548-1.293,1.532-1.746,2.163-1.895c0.368-0.086,1.655-0.276,2.601,0.52c0.436,0.36,0.534,0.467,0.83,0.86L68.441,461.21z"/>
		<path d="M76.058,452.843l1.771-0.415l2.632,11.236l5.943-1.393l0.382,1.631l-7.714,1.808L76.058,452.843z"/>
		<path d="M94.488,459.935c0.111,0.474,0.242,1.034,1.023,0.814l0.291,1.245c-0.78,0.146-1.335,0.22-1.932-0.194
			c-0.173-0.108-0.519-0.397-0.67-0.806l-0.061-0.022c-0.089,0.095-0.38,0.589-0.451,0.679c-0.838,1.158-1.501,1.405-2.326,1.599
			c-1.297,0.304-2.476-0.547-2.751-1.723c-0.267-1.139,0.075-2.126,0.741-2.91c0.827-0.971,2.168-1.562,3.672-1.933l-0.279-1.192
			c-0.086-0.368-0.296-1.262-1.733-0.926c-0.912,0.214-1.748,0.909-2.421,1.585l-0.959-1.015c0.995-0.881,1.717-1.512,3.189-1.856
			c0.648-0.151,1.584-0.187,2.247,0.121c0.768,0.356,1.121,0.995,1.335,1.906L94.488,459.935z M92.243,457.612
			c-1.925,0.47-3.488,1.612-3.11,3.225c0.181,0.772,0.862,1.314,1.704,1.117c1.018-0.238,1.631-1.25,1.993-1.835L92.243,457.612z"/>
		<path d="M95.617,452.532l1.303-0.915l0.419,1.787c0.017,0.07,0.093,0.163,0.181,0.143c0.088-0.021,0.178-0.189,0.24-0.315
			l0.241-0.555c0.37-0.864,1.004-1.476,1.933-1.692c0.421-0.099,0.867-0.092,1.273,0.071c0.427,0.159,0.818,0.492,1.131,1.824
			l1.639,6.995l-1.542,0.361l-1.631-6.96c-0.058-0.245-0.283-1.209-1.195-0.995c-0.824,0.192-1.284,1.226-1.348,1.352
			c-0.375,0.846-0.458,1.124-0.454,1.142l1.454,6.206l-1.578,0.369L95.617,452.532z"/>
		<path d="M109.339,448.91l1.263-0.296l1.935,8.257c0.119,0.509,0.162,1.404,0.149,1.594c0.004,0.091-0.074,1.256-1.135,2.021
			c-0.221,0.163-0.852,0.625-1.938,0.88c-0.298,0.07-1.253,0.258-2.222,0.226l-0.374-1.596l0.648-0.151
			c0.319,0.258,0.678,0.525,1.678,0.291c0.858-0.201,1.312-0.714,1.355-0.762c0.631-0.703,0.393-1.719,0.294-2.141l-0.312-1.332
			l-0.091-0.07c-0.123,0.028-0.132,0.068-0.225,0.385c-0.092,0.317-0.543,1.312-1.822,1.611c-1.192,0.279-2.162-0.308-2.807-1.081
			c-0.721-0.867-0.998-1.895-1.22-2.84c-0.514-2.191,0.416-4.147,2.012-4.521c1.402-0.328,2.171,0.268,2.703,0.884
			c0.198,0.212,0.206,0.247,0.323,0.275c0.062-0.052,0.142-0.107,0.104-0.266L109.339,448.91z M110.077,453.009
			c-0.501-2.138-1.679-2.824-2.801-2.562c-1.823,0.428-1.24,2.917-1.051,3.724c0.135,0.578,0.772,2.666,2.438,2.276
			C109.26,456.308,110.668,455.533,110.077,453.009z"/>
		<path d="M120.083,456.344l-0.398-1.701c-0.017-0.069-0.088-0.22-0.158-0.203s-0.105,0.024-0.146,0.09
			c-0.156,0.276-0.321,0.759-0.515,1.118c-0.407,0.706-1.014,1.199-1.75,1.371c-0.999,0.234-1.988-0.198-2.383-1.882l-1.655-7.065
			l1.578-0.369l1.548,6.608c0.107,0.456,0.378,1.612,1.325,1.391c0.771-0.181,1.13-1.096,1.729-2.568l-1.445-6.17l1.525-0.357
			l2.078,8.87L120.083,456.344z"/>
		<path d="M129.539,451.724c0.111,0.474,0.242,1.034,1.023,0.814l0.292,1.245c-0.781,0.146-1.336,0.22-1.933-0.194
			c-0.173-0.108-0.519-0.397-0.669-0.806l-0.062-0.022c-0.088,0.095-0.38,0.589-0.451,0.679c-0.838,1.158-1.501,1.405-2.325,1.599
			c-1.297,0.304-2.477-0.547-2.752-1.723c-0.267-1.139,0.075-2.126,0.742-2.91c0.826-0.971,2.167-1.562,3.671-1.933l-0.279-1.193
			c-0.086-0.367-0.295-1.262-1.732-0.925c-0.912,0.214-1.748,0.909-2.422,1.585l-0.959-1.015c0.995-0.881,1.717-1.512,3.19-1.856
			c0.648-0.152,1.583-0.187,2.247,0.121c0.768,0.356,1.12,0.995,1.334,1.906L129.539,451.724z M127.294,449.401
			c-1.924,0.47-3.487,1.612-3.11,3.225c0.182,0.772,0.863,1.314,1.704,1.117c1.018-0.238,1.631-1.25,1.994-1.835L127.294,449.401z"
			/>
		<path d="M135.627,442.752l1.263-0.296l1.935,8.257c0.119,0.509,0.162,1.404,0.15,1.594c0.003,0.091-0.075,1.256-1.136,2.021
			c-0.22,0.163-0.851,0.625-1.938,0.88c-0.298,0.07-1.253,0.258-2.221,0.226l-0.374-1.596l0.648-0.151
			c0.319,0.258,0.677,0.525,1.677,0.291c0.858-0.201,1.312-0.714,1.355-0.762c0.632-0.703,0.394-1.719,0.295-2.141l-0.312-1.332
			l-0.091-0.07c-0.123,0.028-0.132,0.068-0.224,0.385c-0.092,0.317-0.543,1.312-1.823,1.611c-1.192,0.279-2.162-0.308-2.806-1.081
			c-0.721-0.867-0.998-1.895-1.22-2.84c-0.514-2.191,0.415-4.147,2.011-4.521c1.402-0.328,2.171,0.268,2.703,0.884
			c0.198,0.212,0.207,0.247,0.323,0.275c0.062-0.052,0.142-0.107,0.104-0.266L135.627,442.752z M136.365,446.851
			c-0.5-2.138-1.679-2.824-2.801-2.562c-1.823,0.428-1.24,2.917-1.051,3.724c0.135,0.578,0.773,2.666,2.438,2.276
			C135.548,450.149,136.957,449.375,136.365,446.851z"/>
		<path d="M147.001,445.137l-5.434,1.273c0.462,2.055,1.379,3.282,3.009,2.9c1.069-0.25,1.459-0.878,1.678-1.207l1.109,0.629
			c-0.474,0.665-1.044,1.465-2.709,1.855c-2.121,0.496-4.007-0.838-4.681-3.713c-1.092-4.663,1.588-5.697,2.412-5.891
			c2.209-0.518,3.823,1.083,4.401,3.315L147.001,445.137z M145.173,444.437c-0.369-1.577-1.241-2.613-2.485-2.321
			c-0.754,0.177-1.243,0.772-1.377,1.543c-0.124,0.732,0.002,1.35,0.059,1.669L145.173,444.437z"/>
		<path d="M152.676,440.719c-0.798-0.331-1.354-0.57-2.265-0.356c-0.964,0.226-1.224,0.934-1.084,1.529
			c0.16,0.684,0.785,0.907,1.412,1.057l1.645,0.392c0.566,0.126,1.897,0.442,2.263,2.003c0.383,1.631-0.612,3.064-2.366,3.476
			c-1.332,0.312-2.279-0.021-2.904-0.244l0.334-1.336c1.041,0.496,1.62,0.602,2.356,0.429c0.999-0.233,1.4-1.049,1.224-1.803
			s-0.599-0.896-2.261-1.283c-1.876-0.43-2.672-0.982-2.955-2.192c-0.374-1.596,0.688-2.824,2.144-3.165
			c0.649-0.152,1.358-0.281,2.623,0.144L152.676,440.719z"/>
		<path d="M163.104,432.192c-0.593,1.026-1.099,3.049-1.179,3.419c-0.137,0.68-0.41,2.038,0.033,3.932
			c0.694,2.962,2.854,4.843,4.308,6.073l-1.63,0.382c-1.035-0.867-2.138-1.94-2.922-3.236c-0.439-0.692-0.942-1.812-1.128-2.602
			c-0.566-2.419-0.419-4.396,0.869-7.582L163.104,432.192z"/>
		<path d="M165.712,434.577c0.244-1.168,0.569-1.909,1.402-2.695c0.745-0.693,1.565-0.978,2.073-1.097
			c1.088-0.255,4.076-0.363,4.799,2.722c0.119,0.509,0.163,1.404-0.133,2.195c-0.26,0.708-0.628,1.424-1.94,3.007l-1.183,1.424
			c-0.578,0.689-0.808,1.447-0.836,1.563c-0.142,0.422-0.119,0.676-0.077,1.092l6.048-1.417l0.37,1.577l-7.995,1.873
			c-0.623-3.054,0.243-4.569,2.236-6.959c1.009-1.217,2.107-2.528,1.767-3.983c-0.206-0.877-1.002-1.984-2.614-1.606
			c-0.912,0.214-2.08,0.912-2.349,2.843L165.712,434.577z"/>
		<path d="M180.255,428.229c-0.71,1.312-1.253,2.31-1.683,3.631c-0.275,0.878-0.607,2.306-0.456,3.343
			c0.343-0.432,0.903-1.117,2.235-1.43c2.718-0.637,4.483,0.983,4.951,2.982c0.477,2.033-0.092,4.497-3.336,5.257
			c-2.155,0.505-4.474-0.469-5.225-3.677c-0.608-2.595-0.308-4.311-0.168-5.139c0.371-2.121,0.923-3.396,1.366-4.426
			L180.255,428.229z M181.748,440.603c1.367-0.32,2.244-1.468,1.83-3.238c-0.275-1.176-1.352-2.532-3.069-2.13
			c-1.069,0.25-2.251,1.36-1.812,3.236C179.091,440.153,180.362,440.928,181.748,440.603z"/>
		<path d="M192.121,428.927c0.428,1.823-0.688,3.619-2.459,4.034c-1.752,0.41-3.559-0.591-3.986-2.414
			c-0.39-1.666,0.528-3.508,2.615-3.996C189.746,426.21,191.689,427.086,192.121,428.927z M188.454,427.955
			c-0.965,0.226-1.655,1.146-1.397,2.25c0.26,1.104,1.282,1.605,2.247,1.379c1.034-0.242,1.647-1.256,1.409-2.271
			C190.512,428.452,189.558,427.696,188.454,427.955z M197.397,424.14l-5.238,15.448l-1.14,0.267l5.239-15.448L197.397,424.14z
			 M202.76,433.369c0.418,1.788-0.668,3.541-2.439,3.956c-1.736,0.406-3.572-0.568-4.004-2.409
			c-0.436-1.858,0.773-3.566,2.509-3.973C200.473,430.558,202.345,431.599,202.76,433.369z M200.008,435.993
			c1.07-0.251,1.606-1.357,1.385-2.304c-0.247-1.052-1.317-1.597-2.247-1.378c-1.052,0.246-1.687,1.244-1.46,2.209
			C197.956,435.677,199.043,436.219,200.008,435.993z"/>
		<path d="M205.872,436.338c0.071-0.165,0.381-0.901,0.435-1.062c0.137-0.366,0.5-1.578,0.545-1.7
			c0.634-2.349,0.293-3.804,0.128-4.505c-0.205-0.877-0.628-2.683-3.155-5.104c-0.168-0.164-0.97-0.901-1.133-1.048l1.596-0.373
			c1.744,1.606,3.42,3.155,4.127,6.171c0.702,2.997-0.367,5.855-0.747,6.758c-0.073,0.166-0.145,0.33-0.199,0.491L205.872,436.338z"
			/>
		<path d="M9.669,488.002c-0.427,0.741-0.792,2.202-0.851,2.469c-0.098,0.491-0.296,1.472,0.024,2.839
			c0.501,2.14,2.061,3.496,3.11,4.386l-1.178,0.276c-0.747-0.627-1.543-1.402-2.109-2.338c-0.316-0.5-0.68-1.309-0.813-1.878
			c-0.409-1.747-0.303-3.174,0.627-5.475L9.669,488.002z"/>
		<path d="M17.788,488.517c0.472,0.758,0.802,1.828,0.953,2.474c0.519,2.216,0.527,5.044-1.979,5.631
			c-2.278,0.534-3.677-1.556-4.258-4.036c-0.332-1.418-0.406-2.762-0.073-3.735c0.481-1.42,1.373-1.777,2.057-1.938
			C16.058,486.545,17.146,487.492,17.788,488.517z M14.774,488.021c-0.798,0.188-1.161,0.858-1.222,1.795
			c-0.047,0.598,0.045,1.445,0.272,2.42c0.276,1.177,1.021,3.618,2.642,3.238c1.316-0.308,1.506-1.78,0.954-4.135
			C17.134,490.112,16.432,487.634,14.774,488.021z"/>
		<path d="M19.633,486.135l0.88-0.634l0.165-0.038l2.209,9.431l-1.14,0.267L19.633,486.135z"/>
		<path d="M27.364,483.857l2.161,9.228l-0.877,0.645l-0.392-1.443c-0.012-0.05-0.059-0.079-0.097-0.07
			c-0.063,0.015-0.068,0.108-0.101,0.251c-0.018,0.098-0.347,1.029-0.679,1.32c-0.145,0.127-0.389,0.278-0.655,0.341
			c-1.393,0.326-2.493-0.952-2.991-3.078c-0.329-1.405-0.226-3.474,1.344-3.841c0.772-0.181,1.149,0.118,1.639,0.498
			c0.05,0.042,0.103,0.097,0.152,0.138c0.034,0.032,0.133,0.169,0.197,0.154c0.05-0.012,0.073-0.084,0.056-0.16l-0.774-3.303
			L27.364,483.857z M26.781,493.113c1.025-0.24,1.203-1.764,0.942-2.877c-0.341-1.456-1.255-2.391-2.115-2.189
			c-0.975,0.229-1.037,1.445-0.673,3.001C25.072,491.631,25.566,493.398,26.781,493.113z"/>
		<path d="M31.255,493.227l-1.063,0.249l0.726-10.411l1.075-0.253L31.255,493.227z"/>
		<path d="M39.024,491.112l-4.239-7.952c-0.022-0.035-0.056-0.067-0.106-0.056s-0.103,0.078-0.084,0.154l1.975,8.43l-1.051,0.246
			l-2.177-9.29l1.937-0.454l3.665,6.752c0.043,0.069,0.09,0.099,0.141,0.087c0.076-0.018,0.127-0.083,0.122-0.162l0.237-7.652
			l1.962-0.46l2.176,9.29l-1.051,0.246l-1.963-8.38c-0.018-0.076-0.077-0.102-0.115-0.093c-0.051,0.012-0.095,0.05-0.105,0.118
			l-0.259,8.927L39.024,491.112z"/>
		<path d="M44.081,480.382l1.468-0.344l0.281,1.202l-1.468,0.344L44.081,480.382z M44.827,482.771l1.14-0.268l1.551,6.619
			l-1.14,0.268L44.827,482.771z"/>
		<path d="M51.982,478.09l2.162,9.228l-0.877,0.646l-0.393-1.444c-0.012-0.05-0.059-0.079-0.097-0.07
			c-0.062,0.015-0.067,0.109-0.101,0.252c-0.018,0.098-0.346,1.028-0.679,1.319c-0.144,0.128-0.389,0.279-0.655,0.341
			c-1.392,0.326-2.492-0.951-2.99-3.077c-0.329-1.405-0.226-3.474,1.344-3.842c0.771-0.181,1.149,0.118,1.639,0.498
			c0.05,0.042,0.103,0.097,0.152,0.139c0.034,0.032,0.133,0.169,0.196,0.153c0.051-0.012,0.073-0.084,0.056-0.16l-0.773-3.303
			L51.982,478.09z M51.4,487.347c1.025-0.24,1.202-1.765,0.941-2.878c-0.341-1.456-1.254-2.391-2.115-2.188
			c-0.975,0.228-1.036,1.444-0.672,3C49.691,485.863,50.186,487.631,51.4,487.347z"/>
		<path d="M58.311,476.607l2.162,9.228l-0.877,0.646l-0.392-1.444c-0.012-0.05-0.059-0.079-0.097-0.07
			c-0.062,0.015-0.068,0.108-0.102,0.252c-0.017,0.098-0.346,1.028-0.679,1.319c-0.144,0.128-0.388,0.278-0.654,0.341
			c-1.392,0.326-2.493-0.952-2.991-3.078c-0.329-1.405-0.226-3.473,1.345-3.841c0.771-0.181,1.148,0.118,1.638,0.498
			c0.05,0.042,0.104,0.097,0.153,0.139c0.034,0.032,0.133,0.169,0.196,0.153c0.05-0.012,0.073-0.084,0.056-0.16l-0.774-3.303
			L58.311,476.607z M57.729,485.863c1.025-0.239,1.203-1.764,0.942-2.877c-0.341-1.456-1.254-2.391-2.116-2.188
			c-0.974,0.228-1.036,1.444-0.671,3C56.02,484.381,56.514,486.148,57.729,485.863z"/>
		<path d="M60.427,476.578l0.88-0.633l0.164-0.039l2.209,9.431l-1.139,0.267L60.427,476.578z"/>
		<path d="M69.743,480.551l-3.924,0.92c0.335,1.484,0.996,2.371,2.173,2.095c0.772-0.181,1.053-0.634,1.211-0.872l0.801,0.454
			c-0.342,0.481-0.754,1.058-1.955,1.34c-1.532,0.358-2.894-0.604-3.38-2.68c-0.788-3.367,1.146-4.114,1.741-4.253
			c1.596-0.374,2.761,0.781,3.178,2.393L69.743,480.551z M68.423,480.047c-0.267-1.14-0.896-1.887-1.794-1.676
			c-0.545,0.127-0.897,0.557-0.995,1.114c-0.09,0.528,0.002,0.975,0.043,1.205L68.423,480.047z"/>
		<path d="M74.022,473.114l5.772-1.352l0.267,1.139l-4.443,1.04l0.632,2.695l3.278-0.768l0.275,1.178l-3.253,0.762l0.727,3.102
			l4.658-1.091l0.275,1.177l-6.013,1.408L74.022,473.114z"/>
		<path d="M82.529,474.206l0.94-0.662l0.302,1.291c0.013,0.052,0.068,0.119,0.131,0.104c0.064-0.016,0.129-0.138,0.175-0.229
			l0.173-0.401c0.268-0.623,0.726-1.064,1.396-1.221c0.305-0.071,0.626-0.066,0.92,0.051c0.308,0.114,0.591,0.356,0.816,1.317
			l1.183,5.051l-1.113,0.261l-1.177-5.025c-0.042-0.177-0.205-0.873-0.863-0.719c-0.595,0.14-0.928,0.885-0.974,0.976
			c-0.27,0.611-0.33,0.812-0.327,0.824l1.05,4.481l-1.14,0.267L82.529,474.206z"/>
		<path d="M92.438,471.59l0.911-0.213l1.396,5.962c0.086,0.367,0.118,1.015,0.109,1.149c0.003,0.065-0.054,0.908-0.819,1.46
			c-0.16,0.118-0.615,0.452-1.399,0.636c-0.217,0.051-0.906,0.185-1.605,0.161l-0.27-1.151l0.469-0.11
			c0.23,0.188,0.489,0.38,1.211,0.211c0.619-0.145,0.947-0.516,0.979-0.55c0.455-0.507,0.283-1.24,0.212-1.545l-0.226-0.962
			l-0.064-0.052c-0.088,0.021-0.096,0.049-0.162,0.277c-0.066,0.229-0.393,0.947-1.316,1.164c-0.861,0.201-1.561-0.222-2.025-0.78
			c-0.52-0.626-0.721-1.367-0.881-2.051c-0.371-1.582,0.3-2.994,1.452-3.264c1.013-0.237,1.566,0.193,1.951,0.637
			c0.144,0.154,0.149,0.179,0.233,0.199c0.046-0.037,0.103-0.077,0.076-0.191L92.438,471.59z M92.971,474.55
			c-0.361-1.544-1.212-2.039-2.021-1.85c-1.316,0.309-0.895,2.105-0.759,2.688c0.098,0.419,0.558,1.927,1.761,1.645
			C92.382,476.932,93.397,476.373,92.971,474.55z"/>
		<path d="M94.854,468.514l0.88-0.634l0.166-0.039l2.209,9.431l-1.141,0.268L94.854,468.514z"/>
		<path d="M98.202,467.703l1.47-0.344l0.281,1.202l-1.469,0.344L98.202,467.703z M98.949,470.093l1.14-0.268l1.551,6.619
			l-1.14,0.268L98.949,470.093z"/>
		<path d="M105.46,469.955c-0.576-0.239-0.978-0.412-1.636-0.258c-0.696,0.163-0.883,0.675-0.782,1.105
			c0.115,0.493,0.566,0.654,1.02,0.762l1.188,0.283c0.408,0.092,1.369,0.319,1.634,1.446c0.275,1.177-0.444,2.213-1.709,2.509
			c-0.963,0.226-1.646-0.014-2.098-0.175l0.241-0.964c0.752,0.356,1.17,0.433,1.701,0.308c0.722-0.169,1.012-0.757,0.884-1.302
			c-0.128-0.544-0.433-0.646-1.632-0.926c-1.354-0.311-1.929-0.709-2.134-1.583c-0.27-1.151,0.497-2.04,1.547-2.286
			c0.47-0.109,0.98-0.202,1.894,0.104L105.46,469.955z"/>
		<path d="M106.474,465.792l1.03-0.735l0.913,3.898c0.021,0.089,0.055,0.121,0.131,0.104c0.063-0.015,0.149-0.276,0.224-0.467
			c0.322-0.85,0.886-1.183,1.455-1.316c0.937-0.219,1.468,0.338,1.692,1.301l1.213,5.177l-1.127,0.264l-1.204-5.139
			c-0.112-0.481-0.337-0.763-0.818-0.649c-0.24,0.056-0.468,0.229-0.663,0.476c-0.267,0.344-0.49,0.93-0.647,1.34l1.056,4.506
			l-1.14,0.268L106.474,465.792z"/>
		<path d="M116.222,471.267l-0.045,0.438l-0.505,3.884l-1.063,0.249l0.588-4.33L116.222,471.267z"/>
		<path d="M125.273,463.338c0.471,0.757,0.802,1.828,0.953,2.474c0.52,2.216,0.527,5.044-1.979,5.631
			c-2.279,0.534-3.677-1.556-4.258-4.036c-0.332-1.418-0.406-2.763-0.073-3.735c0.481-1.42,1.373-1.777,2.057-1.938
			C123.542,461.366,124.633,462.312,125.273,463.338z M122.26,462.843c-0.797,0.187-1.161,0.858-1.223,1.794
			c-0.047,0.599,0.045,1.445,0.273,2.42c0.276,1.177,1.021,3.619,2.642,3.239c1.317-0.309,1.506-1.78,0.954-4.135
			C124.619,464.934,123.918,462.454,122.26,462.843z"/>
		<path d="M127.118,460.955l0.88-0.633l0.165-0.039l2.209,9.431l-1.14,0.267L127.118,460.955z"/>
		<path d="M134.85,458.678l2.161,9.228l-0.877,0.646l-0.392-1.444c-0.012-0.05-0.059-0.079-0.097-0.07
			c-0.063,0.015-0.067,0.108-0.102,0.252c-0.017,0.098-0.347,1.028-0.679,1.319c-0.144,0.128-0.389,0.279-0.654,0.341
			c-1.393,0.326-2.492-0.952-2.99-3.078c-0.33-1.405-0.228-3.473,1.343-3.841c0.772-0.181,1.148,0.118,1.639,0.498
			c0.05,0.042,0.104,0.097,0.152,0.139c0.034,0.032,0.134,0.169,0.196,0.154c0.052-0.013,0.074-0.085,0.056-0.161l-0.773-3.303
			L134.85,458.678z M134.268,467.934c1.025-0.239,1.201-1.764,0.94-2.877c-0.341-1.456-1.254-2.391-2.114-2.188
			c-0.975,0.228-1.037,1.444-0.672,3C132.558,466.451,133.053,468.219,134.268,467.934z"/>
		<path d="M140.662,457.504l1.646-0.386l4.095,5.342c0.003,0.013,0.581,0.826,0.597,0.835c0.102,0.15,0.539,0.821,0.625,0.962
			c0.026-0.006,0.054,0.001,0.08-0.005c0.038-0.062,0.035-0.074,0.005-0.202c-0.032-0.139-0.23-0.76-0.261-0.887
			c-0.162-0.576-0.274-1.057-0.349-1.374l-1.287-5.492l1.064-0.249l2.176,9.29l-1.62,0.379l-4.123-5.403
			c-0.523-0.691-1.099-1.611-1.21-1.8c-0.015-0.009-0.053,0-0.068-0.01c-0.062,0.081-0.059,0.094-0.043,0.157
			c0.062,0.267,0.451,1.643,0.467,1.706l1.446,6.177l-1.063,0.25L140.662,457.504z"/>
		<path d="M152.008,457.488c1.253-0.294,2.015,0.224,2.509,0.788c0.439,0.512,0.858,1.441,1.009,2.087
			c0.466,1.987-0.212,3.654-1.844,4.037c-1.152,0.27-1.773-0.212-2.101-0.47c-0.639-0.504-1.064-1.353-1.332-2.492
			C149.71,459.135,150.641,457.809,152.008,457.488z M151.411,461.381c0.118,0.506,0.734,2.338,2.051,2.03
			c1.216-0.285,1.069-1.88,0.847-2.828c-0.104-0.443-0.344-1.123-0.596-1.518s-0.597-0.608-0.931-0.664
			c-0.166-0.026-0.336-0.014-0.5,0.025C151.028,458.72,151.171,460.355,151.411,461.381z"/>
		<path d="M156.22,456.943l0.962-0.681l0.492,2.102c0.019,0.076,0.061,0.146,0.099,0.138l0.14-0.033
			c0.056-0.106,0.208-0.597,0.25-0.699c0.551-1.464,1.284-1.983,1.45-2.076l0.439,1.874c-0.146,0.008-0.288,0.028-0.427,0.061
			c-0.785,0.185-1.307,0.866-1.623,1.622l0.887,3.784l-1.178,0.275L156.22,456.943z"/>
		<path d="M164.405,456.146c-0.576-0.238-0.978-0.411-1.636-0.258c-0.696,0.163-0.883,0.675-0.782,1.105
			c0.115,0.493,0.566,0.654,1.02,0.762l1.188,0.283c0.408,0.092,1.369,0.319,1.634,1.446c0.275,1.177-0.444,2.213-1.71,2.51
			c-0.962,0.226-1.645-0.015-2.097-0.176l0.241-0.964c0.752,0.356,1.17,0.433,1.701,0.309c0.722-0.17,1.012-0.758,0.884-1.303
			c-0.128-0.544-0.433-0.646-1.632-0.926c-1.354-0.31-1.929-0.709-2.134-1.583c-0.27-1.151,0.497-2.04,1.547-2.286
			c0.469-0.109,0.98-0.201,1.894,0.104L164.405,456.146z"/>
		<path d="M171.559,456.7l-3.924,0.919c0.334,1.484,0.995,2.371,2.172,2.096c0.772-0.181,1.054-0.634,1.211-0.872l0.802,0.454
			c-0.342,0.48-0.754,1.058-1.957,1.339c-1.53,0.359-2.892-0.604-3.378-2.679c-0.789-3.367,1.146-4.114,1.741-4.254
			c1.595-0.373,2.76,0.781,3.177,2.393L171.559,456.7z M170.238,456.195c-0.267-1.14-0.896-1.886-1.795-1.676
			c-0.545,0.128-0.897,0.558-0.994,1.115c-0.09,0.527,0.001,0.974,0.042,1.204L170.238,456.195z"/>
		<path d="M174.914,457.518l-0.045,0.438l-0.506,3.884l-1.062,0.249l0.588-4.33L174.914,457.518z"/>
		<path d="M180.317,458.014l-2.177-9.29l2.013-0.471c3.075-0.721,4.734,0.772,5.434,3.759c0.14,0.596,0.321,1.769-0.014,2.901
			c-0.236,0.816-0.775,2.052-3.23,2.626L180.317,458.014z M179.707,449.599l1.625,6.937l0.962-0.226
			c2.216-0.519,2.312-2.385,1.905-4.119c-0.198-0.848-0.592-1.904-1.356-2.486c-0.647-0.488-1.363-0.521-2.515-0.251
			L179.707,449.599z"/>
		<path d="M191.86,455.482l-0.287-1.227c-0.013-0.052-0.063-0.159-0.115-0.146c-0.05,0.012-0.075,0.018-0.104,0.064
			c-0.113,0.199-0.231,0.548-0.371,0.809c-0.294,0.509-0.732,0.865-1.264,0.99c-0.721,0.169-1.437-0.146-1.722-1.36l-1.194-5.1
			l1.14-0.268l1.118,4.771c0.077,0.329,0.272,1.165,0.956,1.005c0.557-0.13,0.816-0.792,1.248-1.854l-1.044-4.455l1.102-0.259
			l1.5,6.404L191.86,455.482z"/>
		<path d="M192.497,448.738l0.949-0.222l-0.354-1.507l0.823-1.274l0.127-0.03l0.594,2.532l1.05-0.246l0.169,0.722l-1.113,0.262
			l0.922,3.937c0.03,0.126,0.14,0.594,0.696,0.463c0.38-0.089,0.75-0.389,1.027-0.628l0.234,1.001
			c-0.297,0.27-0.834,0.542-1.214,0.632c-0.304,0.07-1.542,0.254-1.851-1.062l-0.954-4.075l-0.938,0.219L192.497,448.738z"/>
		<path d="M200.929,448.139c-0.169-0.268-0.6-0.968-1.372-0.787c-0.785,0.185-1.188,1.146-0.868,2.513
			c0.131,0.558,0.338,1.271,0.609,1.688c0.29,0.439,0.809,0.944,1.53,0.775c0.696-0.163,0.886-0.834,0.831-1.529l1.118,0.219
			c0.041,1.138-0.594,2.021-1.721,2.285c-2.531,0.593-3.291-2.365-3.377-2.732c-0.148-0.634-0.395-1.685,0.06-2.765
			c0.396-0.935,1.106-1.262,1.562-1.369c0.266-0.062,1.195-0.199,1.877,0.376c0.313,0.26,0.387,0.337,0.6,0.62L200.929,448.139z"/>
		<path d="M202.341,443.334l1.029-0.734l0.913,3.898c0.021,0.089,0.056,0.121,0.132,0.104c0.062-0.016,0.148-0.276,0.223-0.467
			c0.323-0.851,0.886-1.184,1.456-1.316c0.937-0.22,1.467,0.337,1.692,1.3l1.213,5.177l-1.127,0.264l-1.204-5.139
			c-0.112-0.481-0.338-0.762-0.819-0.649c-0.24,0.057-0.466,0.229-0.662,0.476c-0.269,0.344-0.491,0.93-0.648,1.341l1.056,4.506
			l-1.139,0.267L202.341,443.334z"/>
		<path d="M210.938,451.082c0.053-0.119,0.274-0.652,0.314-0.77c0.1-0.263,0.361-1.138,0.395-1.226
			c0.457-1.696,0.211-2.747,0.092-3.254c-0.148-0.633-0.453-1.938-2.278-3.686c-0.121-0.119-0.7-0.65-0.818-0.756l1.151-0.27
			c1.26,1.159,2.471,2.277,2.98,4.455c0.507,2.164-0.266,4.229-0.539,4.88c-0.053,0.119-0.105,0.238-0.145,0.354L210.938,451.082z"
			/>
	</g>
	<g>
		<path d="M181.741,180.269c0.223-0.586,0.737-1.955-0.42-2.9c-0.363-0.297-1.522-1.012-3.377,0.264
			c-0.994,0.676-2.122,2.057-2.156,2.098c-0.9,1.102-1.629,2.25-1.917,3.457c-0.35,1.48,0.441,2.221,0.734,2.459
			c0.767,0.627,1.608,0.593,1.898,0.551c1.057-0.184,1.529-0.704,2.114-1.364l-1.98-1.618l1.06-1.297l3.333,2.723l-4.021,4.923
			l-0.502-0.41l0.205-0.903c0.091-0.367,0.073-0.545-0.011-0.613c-0.056-0.045-0.148-0.074-0.238-0.078
			c-0.101,0.01-0.279,0.027-0.394,0.027c-0.472,0.008-1.646,0.05-2.733-0.839c-0.418-0.342-1.353-1.104-1.34-2.885
			c-0.005-1.957,1.355-4.077,2.289-5.222c0.968-1.185,2.391-2.557,3.898-3.092c1.951-0.709,3.447,0.049,4.047,0.539
			c1.743,1.424,1.834,3.475,1.066,4.985L181.741,180.269z"/>
		<path d="M185.291,184.284l1.559,0.483l-1.892,2.315c-0.068,0.082-0.108,0.189-0.067,0.223l0.154,0.126
			c0.163-0.028,0.829-0.275,0.979-0.315c2.074-0.632,3.262-0.266,3.503-0.162l-1.686,2.064c-0.131-0.154-0.272-0.293-0.426-0.418
			c-0.864-0.707-2.054-0.701-3.151-0.412l-3.406,4.17l-1.297-1.061L185.291,184.284z"/>
		<path d="M193.083,196.486l-4.323-3.531c-1.346,1.62-1.76,3.095-0.464,4.154c0.851,0.694,1.586,0.62,1.979,0.594l0.178,1.262
			c-0.816,0.031-1.798,0.065-3.123-1.017c-1.687-1.378-1.779-3.684,0.089-5.971c3.03-3.709,5.484-2.217,6.14-1.682
			c1.757,1.436,1.472,3.69,0.056,5.51L193.083,196.486z M192.523,194.61c1.025-1.255,1.314-2.576,0.325-3.385
			c-0.6-0.49-1.37-0.515-2.062-0.15c-0.656,0.348-1.069,0.824-1.288,1.063L192.523,194.61z"/>
		<path d="M200.053,202.181l-4.323-3.532c-1.347,1.62-1.761,3.095-0.464,4.155c0.851,0.694,1.585,0.619,1.979,0.594l0.179,1.262
			c-0.816,0.031-1.798,0.065-3.123-1.017c-1.688-1.378-1.779-3.685,0.089-5.972c3.03-3.709,5.484-2.217,6.139-1.682
			c1.757,1.436,1.472,3.691,0.056,5.51L200.053,202.181z M199.494,200.304c1.025-1.254,1.314-2.576,0.324-3.385
			c-0.6-0.49-1.37-0.515-2.062-0.15c-0.656,0.348-1.068,0.824-1.288,1.064L199.494,200.304z"/>
		<path d="M207.018,197.151l1.396,0.396l0.196,0.16l-8.486,10.388l-1.227-1.003L207.018,197.151z M210.361,204.3l-5.519,1.35
			l-0.21,5.92l-0.103,0.125l-1.464-1.195l0.313-5.904l5.561-1.457L210.361,204.3z"/>
		<path d="M221.678,208.313c-1.174,0.156-3.086,0.989-3.428,1.151c-0.622,0.306-1.866,0.917-3.096,2.423
			c-1.925,2.357-2.098,5.215-2.188,7.118l-1.297-1.06c0.056-1.349,0.235-2.877,0.784-4.289c0.281-0.77,0.862-1.853,1.375-2.48
			c1.572-1.924,3.229-3.012,6.539-3.934L221.678,208.313z"/>
		<path d="M227.526,213.161c-1.473,0.237-2.594,0.414-3.904,0.879c-0.863,0.317-2.197,0.926-2.927,1.678
			c0.551,0.008,1.437,0.034,2.497,0.9c2.161,1.765,1.954,4.152,0.655,5.742c-1.321,1.617-3.622,2.669-6.201,0.562
			c-1.715-1.401-2.357-3.832-0.272-6.384c1.686-2.064,3.23-2.871,3.971-3.267c1.908-0.999,3.256-1.339,4.342-1.614L227.526,213.161z
			 M218.63,221.889c1.088,0.888,2.533,0.884,3.683-0.524c0.764-0.936,1.183-2.615-0.184-3.731c-0.851-0.694-2.451-0.956-3.67,0.536
			C217.366,219.508,217.528,220.989,218.63,221.889z"/>
		<path d="M241.222,224.255l-15.439,5.268l-0.907-0.741l15.439-5.268L241.222,224.255z M234.209,222.99
			c-1.185,1.45-3.288,1.662-4.696,0.513c-1.395-1.141-1.703-3.182-0.518-4.632c1.083-1.325,3.103-1.72,4.762-0.364
			C234.915,219.452,235.406,221.526,234.209,222.99z M232.744,219.491c-0.767-0.626-1.917-0.612-2.635,0.266
			c-0.718,0.879-0.491,1.995,0.276,2.621c0.823,0.672,2,0.541,2.66-0.268C233.604,221.427,233.622,220.209,232.744,219.491z
			 M237.175,234.132c-1.162,1.422-3.214,1.629-4.622,0.479c-1.381-1.129-1.728-3.179-0.532-4.643
			c1.208-1.479,3.297-1.561,4.678-0.434C238.009,230.605,238.325,232.724,237.175,234.132z M233.418,233.55
			c0.85,0.695,2.054,0.446,2.669-0.307c0.684-0.837,0.462-2.018-0.277-2.621c-0.837-0.684-2.016-0.578-2.643,0.189
			C232.416,231.731,232.651,232.924,233.418,233.55z"/>
		<path d="M236.719,238.409c0.175-0.043,0.947-0.249,1.108-0.304c0.372-0.114,1.555-0.565,1.68-0.604
			c2.248-0.93,3.193-2.087,3.649-2.645c0.569-0.697,1.743-2.134,2.121-5.614c0.028-0.233,0.124-1.317,0.139-1.536l1.269,1.036
			c-0.209,2.362-0.415,4.635-2.375,7.034c-1.947,2.383-4.864,3.279-5.812,3.527c-0.175,0.045-0.35,0.087-0.511,0.143
			L236.719,238.409z"/>
	</g>
	<g>
		<path d="M250.169,67.355c-0.774,0.963-2.021,1.887-2.795,2.381c-2.656,1.695-6.348,3.004-8.266-0.001
			c-1.744-2.731,0.345-5.517,3.32-7.415c1.7-1.086,3.422-1.801,4.846-1.812c2.079-0.022,2.952,0.978,3.476,1.798
			C251.95,64.189,251.214,66.047,250.169,67.355z M249.434,63.189c-0.61-0.957-1.657-1.123-2.907-0.772
			c-0.804,0.214-1.868,0.722-3.037,1.468c-1.412,0.9-4.261,2.996-3.021,4.939c1.007,1.578,3.019,1.148,5.842-0.652
			C247.784,67.232,250.702,65.178,249.434,63.189z"/>
		<path d="M249.811,69.672l0.727,1.139l1.806-1.152l2.043,0.49l0.097,0.152l-3.036,1.937l0.804,1.26l-0.865,0.552l-0.853-1.335
			l-4.721,3.013c-0.152,0.096-0.713,0.455-0.287,1.122c0.291,0.456,0.854,0.802,1.292,1.056l-1.199,0.765
			c-0.489-0.265-1.093-0.841-1.383-1.296c-0.232-0.365-1.041-1.899,0.538-2.906l4.888-3.119l-0.717-1.123L249.811,69.672z"/>
		<path d="M257.089,73.312l1.433,1.008l-4.675,2.982c-0.106,0.068-0.132,0.128-0.074,0.219c0.048,0.076,0.428,0.068,0.713,0.08
			c1.258,0.029,1.95,0.613,2.386,1.297c0.717,1.123,0.233,2.072-0.92,2.809l-6.208,3.961l-0.862-1.352l6.163-3.932
			c0.577-0.368,0.84-0.793,0.472-1.369c-0.184-0.288-0.515-0.505-0.926-0.648c-0.57-0.191-1.439-0.213-2.048-0.23l-5.404,3.447
			l-0.872-1.365L257.089,73.312z"/>
		<path d="M258.584,91.088l-3.002-4.706c-1.785,1.118-2.64,2.39-1.739,3.801c0.591,0.927,1.312,1.085,1.695,1.183l-0.225,1.254
			c-0.785-0.225-1.728-0.498-2.648-1.94c-1.172-1.837-0.538-4.057,1.951-5.646c4.038-2.576,5.902-0.391,6.357,0.322
			c1.221,1.912,0.245,3.967-1.668,5.252L258.584,91.088z M258.639,89.131c1.366-0.873,2.054-2.037,1.366-3.115
			c-0.417-0.652-1.14-0.916-1.912-0.787c-0.732,0.125-1.272,0.449-1.556,0.607L258.639,89.131z"/>
		<path d="M263.603,90.551l1.33,0.946l-2.52,1.607c-0.091,0.059-0.163,0.147-0.134,0.192l0.106,0.167
			c0.164,0.022,0.875-0.003,1.029,0.005c2.167,0.049,3.182,0.769,3.377,0.942l-2.247,1.434c-0.076-0.187-0.167-0.362-0.273-0.53
			c-0.601-0.941-1.732-1.309-2.864-1.376l-4.539,2.896l-0.901-1.412L263.603,90.551z"/>
		<path d="M274.033,99.163l0.978,1.532l-9.729,6.209l3.284,5.146l-1.412,0.901l-4.262-6.679L274.033,99.163z"/>
		<path d="M273.45,118.903c-0.41,0.261-0.896,0.571-0.429,1.235l-1.078,0.688c-0.396-0.688-0.65-1.188-0.457-1.888
			c0.044-0.198,0.203-0.62,0.537-0.898l0.002-0.064c-0.119-0.052-0.681-0.163-0.791-0.2c-1.37-0.408-1.824-0.951-2.279-1.664
			c-0.717-1.123-0.304-2.52,0.713-3.168c0.987-0.629,2.031-0.633,2.992-0.265c1.19,0.458,2.192,1.526,3.041,2.823l1.032-0.658
			c0.318-0.203,1.093-0.697,0.298-1.942c-0.504-0.79-1.437-1.348-2.297-1.759l0.64-1.241c1.16,0.647,1.995,1.119,2.809,2.394
			c0.358,0.562,0.701,1.433,0.631,2.16c-0.082,0.843-0.567,1.388-1.356,1.891L273.45,118.903z M274.897,116.016
			c-1.081-1.66-2.677-2.756-4.073-1.865c-0.668,0.426-0.954,1.25-0.489,1.979c0.562,0.881,1.721,1.123,2.392,1.271L274.897,116.016z
			"/>
		<path d="M280.809,117.515l1.295,0.926l-1.548,0.987c-0.061,0.039-0.123,0.143-0.075,0.219c0.048,0.075,0.237,0.104,0.377,0.123
			l0.603,0.041c0.938,0.064,1.724,0.459,2.238,1.264c0.232,0.364,0.374,0.787,0.354,1.227c-0.009,0.453-0.193,0.934-1.347,1.67
			l-6.056,3.865l-0.853-1.336l6.026-3.846c0.213-0.135,1.047-0.668,0.544-1.457c-0.455-0.713-1.582-0.806-1.721-0.824
			c-0.923-0.072-1.213-0.059-1.228-0.049l-5.374,3.429l-0.872-1.366L280.809,117.515z"/>
		<path d="M288.774,129.26l0.697,1.094l-7.149,4.562c-0.44,0.28-1.271,0.618-1.452,0.671c-0.085,0.032-1.21,0.344-2.285-0.402
			c-0.227-0.154-0.872-0.596-1.473-1.537c-0.165-0.258-0.657-1.097-0.948-2.021l1.381-0.882l0.358,0.562
			c-0.138,0.387-0.271,0.814,0.281,1.68c0.475,0.743,1.109,1,1.168,1.027c0.872,0.361,1.752-0.199,2.117-0.432l1.154-0.736
			l0.037-0.109c-0.068-0.107-0.108-0.102-0.438-0.084s-1.417-0.078-2.124-1.187c-0.659-1.032-0.427-2.142,0.09-3.005
			c0.579-0.968,1.455-1.568,2.274-2.092c1.897-1.211,4.05-0.983,4.932,0.398c0.775,1.214,0.466,2.137,0.062,2.843
			c-0.135,0.257-0.166,0.276-0.152,0.396c0.069,0.042,0.148,0.099,0.284,0.011L288.774,129.26z M285.151,131.315
			c1.852-1.182,2.109-2.521,1.489-3.491c-1.007-1.579-3.163-0.203-3.861,0.242c-0.501,0.319-2.26,1.613-1.339,3.055
			C281.769,131.637,282.966,132.71,285.151,131.315z"/>
		<path d="M285.324,141.86l1.472-0.939c0.061-0.038,0.178-0.156,0.139-0.217c-0.039-0.062-0.058-0.091-0.133-0.107
			c-0.313-0.056-0.823-0.052-1.226-0.114c-0.801-0.15-1.467-0.559-1.874-1.197c-0.552-0.865-0.471-1.941,0.986-2.871l6.117-3.904
			l0.872,1.367l-5.722,3.65c-0.395,0.252-1.396,0.893-0.874,1.711c0.426,0.668,1.41,0.703,2.996,0.779l5.343-3.409l0.843,1.32
			l-7.68,4.901L285.324,141.86z"/>
		<path d="M292.815,149.251c-0.41,0.261-0.896,0.571-0.429,1.235l-1.078,0.688c-0.396-0.688-0.65-1.188-0.457-1.888
			c0.044-0.198,0.202-0.62,0.537-0.897l0.001-0.065c-0.118-0.052-0.681-0.163-0.79-0.2c-1.371-0.408-1.824-0.951-2.279-1.664
			c-0.717-1.123-0.304-2.519,0.713-3.168c0.987-0.629,2.03-0.633,2.992-0.265c1.189,0.458,2.192,1.527,3.041,2.823l1.032-0.658
			c0.318-0.203,1.093-0.697,0.298-1.941c-0.504-0.79-1.437-1.349-2.297-1.76l0.639-1.24c1.161,0.646,1.996,1.118,2.809,2.393
			c0.358,0.562,0.7,1.433,0.631,2.16c-0.082,0.843-0.567,1.388-1.356,1.891L292.815,149.251z M294.262,146.363
			c-1.081-1.66-2.677-2.756-4.073-1.865c-0.668,0.427-0.954,1.25-0.489,1.979c0.562,0.881,1.721,1.123,2.392,1.271L294.262,146.363z
			"/>
		<path d="M303.297,152.021l0.698,1.092l-7.149,4.562c-0.44,0.281-1.271,0.619-1.452,0.67c-0.085,0.033-1.21,0.346-2.285-0.4
			c-0.227-0.154-0.872-0.597-1.473-1.537c-0.165-0.258-0.657-1.098-0.948-2.023l1.381-0.881l0.358,0.562
			c-0.138,0.387-0.271,0.812,0.281,1.678c0.475,0.744,1.109,1.002,1.168,1.027c0.872,0.363,1.752-0.199,2.117-0.432l1.154-0.736
			l0.037-0.108c-0.068-0.106-0.108-0.103-0.438-0.084c-0.33,0.019-1.417-0.078-2.124-1.187c-0.659-1.032-0.426-2.141,0.09-3.006
			c0.579-0.967,1.455-1.568,2.274-2.091c1.897-1.211,4.05-0.983,4.932,0.397c0.774,1.215,0.466,2.139,0.062,2.844
			c-0.135,0.258-0.166,0.276-0.152,0.396c0.069,0.041,0.147,0.098,0.284,0.011L303.297,152.021z M299.675,154.076
			c1.852-1.182,2.109-2.52,1.489-3.491c-1.007-1.579-3.163-0.204-3.861,0.241c-0.501,0.32-2.26,1.613-1.34,3.056
			C296.292,154.398,297.49,155.471,299.675,154.076z"/>
		<path d="M304.818,163.542l-3.002-4.705c-1.785,1.118-2.64,2.39-1.739,3.802c0.591,0.926,1.312,1.085,1.694,1.182l-0.225,1.255
			c-0.785-0.226-1.728-0.499-2.648-1.941c-1.172-1.837-0.538-4.056,1.951-5.645c4.038-2.576,5.902-0.392,6.357,0.321
			c1.22,1.912,0.245,3.967-1.668,5.252L304.818,163.542z M304.873,161.586c1.366-0.873,2.054-2.037,1.366-3.115
			c-0.417-0.652-1.141-0.916-1.912-0.787c-0.732,0.125-1.272,0.449-1.556,0.608L304.873,161.586z"/>
		<path d="M310.868,167.433c0.047-0.864,0.09-1.467-0.414-2.257c-0.533-0.834-1.287-0.845-1.803-0.516
			c-0.592,0.379-0.595,1.043-0.528,1.684l0.176,1.682c0.068,0.575,0.211,1.938-1.14,2.799c-1.412,0.901-3.096,0.438-4.064-1.08
			c-0.736-1.154-0.736-2.158-0.732-2.822l1.371-0.127c-0.123,1.146-0.029,1.728,0.377,2.365c0.552,0.865,1.454,0.973,2.106,0.557
			c0.653-0.416,0.647-0.861,0.461-2.559c-0.217-1.912,0.042-2.846,1.089-3.514c1.381-0.882,2.893-0.287,3.697,0.973
			c0.358,0.562,0.715,1.188,0.733,2.521L310.868,167.433z"/>
		<path d="M221.508,82.31l-0.813-1.274l13.938-3.832l0.823,1.29L221.508,82.31z"/>
		<path d="M237.302,81.756l-7.422,4.736c-1.199,0.765-2.466,1.958-1.304,3.779c0.33,0.517,1.061,1.16,2.041,1.09
			c0.801-0.084,1.67-0.596,2.277-0.982l7.042-4.494l0.891,1.396l-7.483,4.774c-1.093,0.697-2.361,1.187-3.619,0.921
			c-1.498-0.305-2.261-1.334-2.784-2.152c-0.349-0.547-0.97-1.923-0.341-3.414c0.514-1.203,1.366-1.875,2.368-2.516l7.346-4.688
			L237.302,81.756z"/>
		<path d="M239.247,92.535l1.295,0.925l-1.548,0.988c-0.061,0.038-0.123,0.142-0.075,0.218s0.238,0.104,0.377,0.123l0.604,0.041
			c0.938,0.064,1.724,0.459,2.237,1.264c0.233,0.365,0.374,0.787,0.355,1.227c-0.009,0.453-0.193,0.935-1.347,1.671l-6.056,3.864
			l-0.853-1.336l6.025-3.845c0.213-0.136,1.048-0.669,0.544-1.458c-0.455-0.713-1.583-0.805-1.722-0.823
			c-0.923-0.073-1.213-0.06-1.228-0.05l-5.373,3.429l-0.872-1.366L239.247,92.535z"/>
		<path d="M247.237,98.027l1.202,0.812l0.136,0.213l-11.308,7.216l-0.852-1.336L247.237,98.027z M248.179,105.863l-5.666-0.443
			l-2.049,5.559l-0.137,0.086l-1.017-1.594l2.144-5.51l5.737,0.354L248.179,105.863z"/>
		<path d="M248.929,107.709l1.295,0.925l-1.548,0.988c-0.061,0.038-0.123,0.142-0.074,0.218s0.238,0.104,0.377,0.123l0.604,0.041
			c0.938,0.064,1.724,0.46,2.237,1.264c0.233,0.365,0.374,0.787,0.355,1.227c-0.009,0.454-0.193,0.935-1.347,1.671l-6.056,3.864
			l-0.853-1.336l6.025-3.844c0.213-0.137,1.048-0.669,0.544-1.458c-0.455-0.714-1.583-0.806-1.722-0.823
			c-0.923-0.074-1.213-0.061-1.228-0.051l-5.373,3.429l-0.872-1.366L248.929,107.709z"/>
		<path d="M255.947,117.602c0.959,1.503,0.634,2.735,0.122,3.64c-0.466,0.81-1.49,1.783-2.264,2.276
			c-2.383,1.521-4.873,1.401-6.123-0.557c-0.882-1.381-0.536-2.413-0.35-2.959c0.366-1.066,1.279-2.012,2.646-2.884
			C252.74,115.355,254.901,115.963,255.947,117.602z M250.587,118.608c-0.607,0.388-2.717,2.033-1.71,3.612
			c0.93,1.457,2.946,0.533,4.084-0.193c0.532-0.339,1.308-0.963,1.708-1.475c0.4-0.511,0.521-1.059,0.44-1.52
			c-0.04-0.23-0.136-0.447-0.261-0.645C253.888,116.887,251.816,117.824,250.587,118.608z"/>
		<path d="M259.167,123.084l-3.67,3.688l-1.898,1.746l-0.029,0.188c0.06,0.026,0.144,0.058,0.194,0.069l2.402-0.956l4.891-1.775
			l0.911,1.427l-3.61,3.648l-1.949,1.8c-0.045,0.028-0.032,0.083-0.042,0.134c0.084,0.031,0.184,0.053,0.27,0.021l2.397-0.996
			l4.736-1.783l0.785,1.229c-0.046,0.029-0.076,0.049-0.131,0.062l-9.105,2.969l-0.901-1.412l3.145-3.138l2.46-2.169
			c0.066-0.063,0.073-0.152,0.065-0.233c-0.069-0.041-0.144-0.058-0.214-0.034l-3.405,1.426l-3.833,1.355l-0.9-1.41l6.582-7.191
			L259.167,123.084z"/>
		<path d="M265.312,133.383l1.295,0.926l-1.548,0.988c-0.061,0.038-0.123,0.142-0.075,0.217c0.048,0.076,0.238,0.105,0.377,0.123
			l0.604,0.042c0.938,0.063,1.724,0.46,2.237,1.264c0.233,0.364,0.374,0.786,0.355,1.226c-0.009,0.455-0.193,0.936-1.347,1.672
			l-6.056,3.863l-0.853-1.335l6.025-3.845c0.213-0.136,1.048-0.668,0.544-1.457c-0.455-0.714-1.583-0.807-1.722-0.824
			c-0.923-0.074-1.213-0.06-1.228-0.051l-5.373,3.43l-0.872-1.366L265.312,133.383z"/>
		<path d="M278.898,146.473c-1.165-0.218-3.242-0.023-3.617,0.023c-0.686,0.096-2.059,0.288-3.698,1.334
			c-2.565,1.637-3.622,4.297-4.303,6.078l-0.9-1.412c0.475-1.264,1.123-2.66,2.085-3.83c0.507-0.643,1.398-1.49,2.081-1.926
			c2.095-1.336,4.008-1.852,7.441-1.693L278.898,146.473z"/>
		<path d="M282.938,152.906c-1.474-0.235-2.594-0.417-3.983-0.385c-0.92,0.031-2.377,0.191-3.305,0.678
			c0.521,0.181,1.354,0.481,2.09,1.635c1.501,2.354,0.558,4.557-1.172,5.661c-1.761,1.124-4.274,1.403-6.065-1.405
			c-1.191-1.867-1.042-4.377,1.736-6.148c2.246-1.434,3.965-1.719,4.792-1.862c2.125-0.353,3.511-0.254,4.629-0.177L282.938,152.906
			z M271.76,158.416c0.755,1.184,2.129,1.631,3.663,0.652c1.017-0.648,1.941-2.113,0.992-3.602c-0.591-0.926-2.03-1.674-3.654-0.637
			C271.303,155.76,270.995,157.217,271.76,158.416z"/>
		<path d="M292.479,167.725l-16.311,0.178l-0.63-0.987l16.312-0.177L292.479,167.725z M285.548,175.842
			c-1.548,0.988-3.562,0.543-4.54-0.99c-0.958-1.503-0.648-3.559,0.946-4.576c1.609-1.026,3.621-0.452,4.579,1.051
			C287.444,172.753,287.082,174.863,285.548,175.842z M286.214,164.332c-1.579,1.008-3.642,0.551-4.62-0.982
			c-0.969-1.518-0.624-3.553,0.955-4.561c1.442-0.92,3.484-0.664,4.637,1.143C287.99,161.191,287.808,163.314,286.214,164.332z
			 M282.162,174.115c0.591,0.926,1.812,1.065,2.631,0.543c0.911-0.582,1.07-1.772,0.556-2.576c-0.581-0.911-1.734-1.179-2.569-0.646
			C281.778,172.075,281.629,173.281,282.162,174.115z M285.915,160.55c-0.533-0.835-1.63-1.181-2.586-0.571
			c-0.956,0.61-1.089,1.741-0.556,2.576c0.572,0.896,1.73,1.139,2.611,0.576C286.128,162.656,286.525,161.506,285.915,160.55z"/>
		<path d="M283.779,179.764c0.18,0.013,0.978,0.059,1.148,0.057c0.389,0.008,1.654-0.052,1.784-0.049
			c2.426-0.181,3.686-0.984,4.293-1.372c0.759-0.484,2.322-1.481,3.77-4.67c0.1-0.213,0.529-1.213,0.613-1.417l0.882,1.382
			c-0.938,2.179-1.845,4.273-4.455,5.939c-2.596,1.656-5.646,1.595-6.624,1.536c-0.18-0.014-0.359-0.027-0.529-0.025
			L283.779,179.764z"/>
	</g>
	<g>
		<path d="M354.538,3.032L367.401,0l0.657,2.786c1.004,4.259-1.062,6.559-5.198,7.533c-0.823,0.194-2.446,0.447-4.019-0.015
			c-1.131-0.325-2.841-1.068-3.643-4.469L354.538,3.032z M366.193,2.172l-9.604,2.264l0.313,1.332
			c0.724,3.067,3.308,3.197,5.708,2.632c1.174-0.277,2.636-0.825,3.44-1.885c0.676-0.898,0.72-1.89,0.344-3.484L366.193,2.172z"/>
		<path d="M363.113,19.635l-1.28-5.433c-2.055,0.466-3.28,1.384-2.896,3.014c0.252,1.069,0.88,1.458,1.209,1.676l-0.626,1.11
			c-0.666-0.473-1.467-1.042-1.859-2.707c-0.5-2.121,0.832-4.007,3.705-4.685c4.662-1.099,5.7,1.58,5.895,2.403
			c0.521,2.208-1.078,3.824-3.309,4.405L363.113,19.635z M363.812,17.806c1.577-0.371,2.61-1.244,2.317-2.488
			c-0.178-0.754-0.774-1.242-1.545-1.375c-0.732-0.123-1.35,0.004-1.669,0.061L363.812,17.806z"/>
		<path d="M368.028,20.786l0.943,1.332l-2.909,0.686c-0.105,0.024-0.202,0.085-0.189,0.137l0.045,0.193
			c0.147,0.076,0.826,0.286,0.97,0.345c2.029,0.761,2.749,1.775,2.878,2.004l-2.595,0.611c-0.011-0.201-0.038-0.397-0.084-0.591
			c-0.256-1.086-1.202-1.807-2.249-2.244l-5.24,1.235l-0.385-1.63L368.028,20.786z"/>
		<path d="M370.094,27.974l0.371,1.578l-9.166,2.16l-0.371-1.577L370.094,27.974z M373.4,26.936l0.479,2.032l-1.665,0.393
			l-0.48-2.032L373.4,26.936z"/>
		<path d="M372.564,38.452l-9.725-0.205l-0.445-1.893l8.574-4.667l0.389,1.647l-5.633,2.79c-0.132,0.067-0.452,0.198-0.686,0.31
			c-0.166,0.076-0.442,0.159-0.57,0.245c-0.031,0.026-0.11,0.082-0.094,0.151l0.028,0.123c0.017,0.07,0.112,0.084,0.169,0.089
			c0.192,0.029,0.529-0.032,0.73-0.042c0.219-0.015,0.441-0.012,0.643-0.021l6.26-0.052L372.564,38.452z"/>
		<path d="M369.727,47.685l-1.281-5.434c-2.055,0.466-3.28,1.384-2.896,3.014c0.252,1.069,0.881,1.458,1.209,1.677l-0.627,1.109
			c-0.665-0.472-1.465-1.042-1.857-2.707c-0.5-2.12,0.83-4.007,3.705-4.685c4.661-1.099,5.699,1.58,5.894,2.403
			c0.521,2.208-1.078,3.824-3.309,4.406L369.727,47.685z M370.424,45.854c1.578-0.371,2.611-1.244,2.317-2.488
			c-0.178-0.754-0.774-1.242-1.544-1.375c-0.732-0.123-1.351,0.004-1.67,0.061L370.424,45.854z"/>
		<path d="M380.446,54.237l-12.775,3.012l-0.896-1.213l1.998-0.545c0.07-0.017,0.11-0.082,0.098-0.135
			c-0.021-0.088-0.151-0.094-0.347-0.141c-0.136-0.023-1.427-0.478-1.831-0.938c-0.176-0.198-0.386-0.537-0.473-0.905
			c-0.454-1.928,1.313-3.455,4.258-4.149c1.945-0.458,4.809-0.318,5.32,1.854c0.252,1.069-0.162,1.592-0.686,2.271
			c-0.058,0.069-0.133,0.142-0.19,0.211c-0.045,0.048-0.234,0.185-0.214,0.272c0.017,0.07,0.117,0.103,0.222,0.077l4.575-1.078
			L380.446,54.237z M367.626,53.448c0.335,1.42,2.445,1.662,3.987,1.299c2.016-0.476,3.309-1.741,3.027-2.934
			c-0.318-1.35-2.004-1.434-4.159-0.925C369.676,51.079,367.229,51.766,367.626,53.448z"/>
		<path d="M377.306,62.021l0.302,1.279l2.016-0.475c0.631-0.148,1.314-0.31,2.159,0.213c0.692,0.429,0.962,1.179,1.073,1.652
			c0.083,0.351,0.18,0.92,0.073,1.406l-1.332,0.314c0.064-0.274,0.144-0.645,0.032-1.117c-0.269-1.14-1.197-0.921-1.67-0.809
			l-1.928,0.454l0.379,1.612l-1.051,0.247l-0.381-1.611l-7.377,1.739l-0.389-1.647l7.378-1.739l-0.302-1.279L377.306,62.021z"/>
		<path d="M379.217,68.246l0.943,1.332l-2.909,0.686c-0.105,0.025-0.202,0.085-0.189,0.138l0.045,0.192
			c0.147,0.076,0.827,0.286,0.97,0.345c2.029,0.762,2.749,1.775,2.877,2.005l-2.594,0.611c-0.011-0.202-0.038-0.398-0.084-0.591
			c-0.256-1.087-1.202-1.808-2.249-2.245l-5.24,1.235l-0.384-1.63L379.217,68.246z"/>
		<path d="M382.125,77.991c0.409,1.735-0.304,2.792-1.086,3.476c-0.707,0.611-1.994,1.192-2.889,1.402
			c-2.751,0.648-5.062-0.286-5.595-2.548c-0.376-1.594,0.291-2.455,0.646-2.908c0.698-0.886,1.872-1.477,3.449-1.849
			C379.84,74.812,381.68,76.1,382.125,77.991z M376.733,77.173c-0.7,0.165-3.236,1.021-2.807,2.844
			c0.396,1.683,2.604,1.477,3.919,1.167c0.613-0.145,1.553-0.478,2.1-0.828c0.545-0.35,0.84-0.827,0.916-1.289
			c0.039-0.23,0.02-0.467-0.034-0.694C380.418,76.637,378.153,76.838,376.733,77.173z"/>
		<path d="M382.984,83.91l0.852,1.261l-2.155,0.508l-0.099,0.134c0.064,0.114,0.086,0.128,0.233,0.204
			c1.211,0.584,1.337,0.646,1.79,1.003c0.299,0.244,0.76,0.634,0.93,1.353c0.335,1.42-0.775,1.886-1.614,2.176l-0.022,0.061
			c0.004,0.018,0.025,0.031,0.029,0.049c0.077,0.092,0.256,0.143,0.364,0.21c1.651,0.961,2.207,1.515,2.422,2.426
			c0.054,0.228,0.167,0.866-0.329,1.428c-0.293,0.328-0.57,0.485-1.99,0.82l-6.677,1.574l-0.355-1.507l6.52-1.537
			c0.754-0.178,1.63-0.384,1.411-1.312c-0.161-0.684-1.103-1.146-2.643-1.874l-6.064,1.429l-0.355-1.508l6.8-1.603
			c1.262-0.298,1.229-0.752,1.138-1.138c-0.078-0.333-0.271-0.602-1.016-1.093c-0.329-0.218-0.477-0.294-1.774-0.857l-5.924,1.396
			l-0.355-1.507L382.984,83.91z"/>
		<path d="M391.51,102.262l0.656,2.787c0.326,1.384,0.578,2.842,0.036,4.153c-0.476,1.203-1.363,1.986-2.66,2.292
			c-1.612,0.38-2.64-0.21-3.184-0.637c-1.137-0.897-1.524-2.231-1.806-3.423l-0.367-1.559l-5.118,1.206l-0.421-1.788L391.51,102.262
			z M390.424,104.405l-4.697,1.106c0.037,0.231,0.09,0.46,0.148,0.705c0.508,2.155,1.162,3.833,3.248,3.341
			c2.383-0.562,1.771-3.155,1.561-4.049L390.424,104.405z"/>
		<path d="M389.992,113.955l0.943,1.332l-2.908,0.686c-0.105,0.024-0.203,0.085-0.19,0.138l0.046,0.192
			c0.146,0.076,0.826,0.286,0.969,0.345c2.029,0.762,2.75,1.775,2.877,2.005l-2.594,0.611c-0.01-0.202-0.038-0.398-0.084-0.591
			c-0.256-1.087-1.202-1.808-2.248-2.245l-5.24,1.235l-0.385-1.63L389.992,113.955z"/>
		<path d="M392.9,123.7c0.41,1.735-0.303,2.792-1.086,3.476c-0.707,0.611-1.994,1.192-2.889,1.402
			c-2.751,0.648-5.062-0.286-5.595-2.548c-0.376-1.594,0.291-2.455,0.646-2.908c0.698-0.886,1.872-1.477,3.45-1.849
			C390.615,120.521,392.455,121.809,392.9,123.7z M387.51,122.882c-0.701,0.165-3.237,1.021-2.808,2.844
			c0.397,1.683,2.604,1.477,3.919,1.167c0.614-0.145,1.553-0.478,2.1-0.828c0.546-0.35,0.84-0.827,0.916-1.289
			c0.039-0.23,0.02-0.467-0.033-0.694C391.193,122.346,388.93,122.547,387.51,122.882z"/>
		<path d="M393.789,129.353l0.94,1.24l-1.963,0.463c-0.141,0.033-0.19,0.137-0.182,0.172c0.008,0.035,0.038,0.084,0.081,0.11
			c0.164,0.146,2.152,0.104,2.573,1.891c0.235,0.999-0.205,1.954-0.895,2.561c-0.827,0.731-2.101,1.291-3.152,1.539
			c-3.224,0.76-5.173-0.206-5.552-1.817c-0.141-0.596,0.002-1.555,0.702-2.275c0.328-0.336,0.364-0.419,0.348-0.488
			c-0.017-0.07-0.179-0.051-0.267-0.03l-4.311,1.017l-0.363-1.542L393.789,129.353z M393.848,133.132
			c-0.318-1.35-2.406-1.653-3.967-1.285c-2.732,0.645-3.201,2.031-2.971,3.013c0.182,0.771,1.085,1.539,3.977,0.857
			C391.851,135.489,394.236,134.778,393.848,133.132z"/>
		<path d="M392.88,145.899l-1.28-5.434c-2.055,0.466-3.281,1.385-2.896,3.014c0.252,1.069,0.88,1.458,1.209,1.677l-0.627,1.109
			c-0.666-0.472-1.467-1.042-1.858-2.707c-0.5-2.12,0.831-4.007,3.705-4.685c4.661-1.099,5.7,1.58,5.894,2.403
			c0.521,2.208-1.078,3.824-3.309,4.406L392.88,145.899z M393.577,144.07c1.578-0.372,2.611-1.245,2.317-2.489
			c-0.178-0.754-0.773-1.241-1.544-1.375c-0.733-0.123-1.351,0.004-1.67,0.061L393.577,144.07z"/>
		<path d="M397.795,147.05l0.943,1.332l-2.91,0.686c-0.105,0.025-0.201,0.085-0.189,0.138l0.046,0.192
			c0.147,0.076,0.826,0.286,0.97,0.345c2.029,0.761,2.748,1.775,2.877,2.005l-2.594,0.611c-0.011-0.202-0.039-0.398-0.084-0.592
			c-0.256-1.086-1.203-1.807-2.25-2.244l-5.24,1.235l-0.384-1.63L397.795,147.05z"/>
		<path d="M359.912,62.367l0.537,2.278l-7.392,5.683c-0.018,0.005-1.143,0.806-1.155,0.828c-0.207,0.141-1.137,0.748-1.33,0.868
			c0.008,0.035-0.002,0.074,0.007,0.109c0.086,0.054,0.104,0.05,0.279,0.008c0.193-0.045,1.052-0.322,1.228-0.363
			c0.798-0.225,1.465-0.382,1.902-0.485l7.605-1.793l0.347,1.472l-12.863,3.033l-0.528-2.243l7.475-5.722
			c0.958-0.725,2.23-1.524,2.49-1.679c0.014-0.021,0.002-0.074,0.016-0.096c-0.113-0.084-0.131-0.08-0.219-0.06
			c-0.367,0.087-2.275,0.629-2.362,0.649l-8.552,2.017l-0.348-1.473L359.912,62.367z"/>
		<path d="M353.32,82.823c-0.473,0.111-1.033,0.244-0.812,1.023l-1.244,0.294c-0.146-0.779-0.223-1.335,0.191-1.932
			c0.107-0.174,0.396-0.52,0.805-0.671l0.022-0.061c-0.095-0.09-0.589-0.38-0.68-0.45c-1.159-0.837-1.408-1.5-1.603-2.323
			c-0.306-1.297,0.545-2.479,1.719-2.755c1.139-0.269,2.126,0.072,2.912,0.738c0.971,0.825,1.564,2.165,1.938,3.668l1.191-0.281
			c0.368-0.087,1.262-0.297,0.924-1.733c-0.215-0.912-0.912-1.747-1.588-2.42l1.013-0.96c0.882,0.994,1.515,1.715,1.861,3.187
			c0.153,0.648,0.188,1.584-0.118,2.248c-0.355,0.768-0.993,1.122-1.904,1.337L353.32,82.823z M355.64,80.574
			c-0.472-1.924-1.617-3.484-3.229-3.104c-0.771,0.182-1.313,0.864-1.115,1.706c0.24,1.017,1.254,1.628,1.838,1.989L355.64,80.574z"
			/>
		<path d="M360.812,83.996l0.852,1.261l-2.156,0.508l-0.098,0.134c0.064,0.114,0.086,0.128,0.233,0.204
			c1.211,0.584,1.337,0.647,1.79,1.003c0.299,0.244,0.76,0.634,0.93,1.353c0.334,1.42-0.776,1.886-1.614,2.176l-0.022,0.061
			c0.004,0.018,0.025,0.03,0.029,0.048c0.077,0.093,0.256,0.144,0.364,0.21c1.651,0.962,2.206,1.515,2.422,2.427
			c0.054,0.228,0.167,0.867-0.329,1.428c-0.293,0.328-0.57,0.486-1.99,0.82l-6.677,1.574l-0.355-1.507l6.519-1.537
			c0.754-0.178,1.631-0.385,1.412-1.313c-0.161-0.683-1.104-1.146-2.644-1.874l-6.063,1.43l-0.355-1.507l6.8-1.604
			c1.263-0.298,1.229-0.752,1.138-1.138c-0.078-0.332-0.271-0.602-1.016-1.092c-0.329-0.219-0.477-0.295-1.775-0.858l-5.924,1.396
			l-0.354-1.507L360.812,83.996z"/>
		<path d="M361.081,105.146l-1.281-5.433c-2.054,0.465-3.28,1.384-2.896,3.014c0.252,1.068,0.88,1.457,1.209,1.676l-0.627,1.109
			c-0.665-0.472-1.466-1.042-1.858-2.707c-0.5-2.12,0.832-4.006,3.705-4.684c4.662-1.099,5.7,1.579,5.895,2.402
			c0.521,2.208-1.078,3.824-3.309,4.406L361.081,105.146z M361.777,103.317c1.578-0.372,2.611-1.245,2.318-2.489
			c-0.178-0.754-0.773-1.241-1.545-1.374c-0.732-0.124-1.35,0.003-1.67,0.06L361.777,103.317z"/>
		<path d="M365.507,110.815c0.329-0.799,0.568-1.355,0.354-2.267c-0.228-0.964-0.937-1.222-1.532-1.082
			c-0.684,0.161-0.905,0.787-1.053,1.414l-0.39,1.646c-0.126,0.566-0.44,1.898-2,2.267c-1.63,0.384-3.066-0.609-3.479-2.362
			c-0.314-1.331,0.018-2.279,0.239-2.905l1.337,0.333c-0.495,1.041-0.599,1.62-0.425,2.356c0.235,0.999,1.052,1.399,1.805,1.222
			s0.894-0.6,1.279-2.263c0.427-1.877,0.979-2.673,2.188-2.958c1.595-0.376,2.826,0.685,3.168,2.139
			c0.153,0.648,0.283,1.358-0.14,2.623L365.507,110.815z"/>
		<path d="M374.048,121.229c-1.026-0.591-3.052-1.094-3.421-1.174c-0.68-0.136-2.039-0.406-3.932,0.039
			c-2.962,0.699-4.838,2.861-6.068,4.316l-0.384-1.63c0.866-1.036,1.938-2.14,3.232-2.926c0.691-0.44,1.812-0.946,2.601-1.132
			c2.418-0.57,4.395-0.425,7.583,0.858L374.048,121.229z"/>
		<path d="M375.875,130.082l-7.798,1.839l0.335,1.42l-1.49,0.351l-0.334-1.42l-3.576,0.843l-0.396-1.682l3.576-0.844l-1.248-5.292
			l1.945-0.459l8.317,2.405L375.875,130.082z M367.642,130.229l6.904-1.628l-0.037-0.157l-7.683-2.223
			c-0.039-0.009-0.092,0.004-0.123,0.029L367.642,130.229z"/>
		<path d="M379.852,145.772l-15.455-5.218l-0.269-1.139l15.456,5.218L379.852,145.772z M370.63,151.146
			c-1.787,0.422-3.542-0.663-3.959-2.434c-0.409-1.735,0.563-3.573,2.403-4.007c1.857-0.438,3.566,0.768,3.977,2.503
			C373.438,148.856,372.4,150.729,370.63,151.146z M368.004,148.399c0.252,1.068,1.357,1.604,2.304,1.381
			c1.052-0.248,1.595-1.32,1.376-2.249c-0.248-1.052-1.248-1.685-2.213-1.458C368.314,146.346,367.776,147.436,368.004,148.399z
			 M375.058,140.502c-1.822,0.43-3.62-0.683-4.037-2.452c-0.413-1.753,0.585-3.561,2.407-3.989c1.665-0.393,3.509,0.522,4,2.608
			C377.771,138.123,376.898,140.067,375.058,140.502z M376.024,136.833c-0.228-0.964-1.148-1.653-2.253-1.393
			c-1.104,0.26-1.602,1.284-1.375,2.248c0.244,1.034,1.258,1.646,2.273,1.406C375.529,138.892,376.285,137.938,376.024,136.833z"/>
		<path d="M367.665,154.264c0.165,0.071,0.903,0.379,1.064,0.434c0.364,0.136,1.578,0.497,1.7,0.543
			c2.35,0.63,3.805,0.287,4.506,0.121c0.876-0.206,2.682-0.632,5.1-3.163c0.164-0.168,0.899-0.971,1.046-1.135l0.376,1.596
			c-1.604,1.746-3.151,3.424-6.166,4.135c-2.996,0.707-5.855-0.357-6.759-0.737c-0.165-0.071-0.331-0.144-0.491-0.198
			L367.665,154.264z"/>
	</g>
</g>
</svg>
